<?xml version="1.0" standalone="no"?>
<!DOCTYPE svg PUBLIC "-//W3C//DTD SVG 20010904//EN"
 "http://www.w3.org/TR/2001/REC-SVG-20010904/DTD/svg10.dtd">
<svg version="1.0" xmlns="http://www.w3.org/2000/svg"
 width="354.000000pt" height="711.000000pt" viewBox="0 0 354.000000 711.000000"
 preserveAspectRatio="xMidYMid meet">

<g transform="translate(0.000000,711.000000) scale(0.100000,-0.100000)"
fill="#000000" stroke="none">
<path d="M525 7099 c-198 -25 -353 -166 -411 -376 -14 -50 -22 -447 -64 -3003
-31 -1907 -45 -2966 -39 -3005 13 -83 70 -195 130 -255 27 -27 78 -63 116 -82
60 -28 80 -33 168 -36 98 -4 112 -1 810 153 771 169 850 187 1365 300 230 50
363 84 400 102 77 37 186 150 233 240 63 121 77 196 84 450 6 203 5 223 -10
223 -9 0 -313 -49 -674 -109 -594 -99 -1752 -288 -2186 -356 -93 -15 -171 -24
-175 -21 -3 4 5 631 17 1394 13 763 31 1836 40 2384 9 548 18 998 21 1001 3 2
169 -16 370 -39 1801 -213 2693 -315 2699 -309 3 4 7 102 9 218 3 171 0 226
-13 282 -40 167 -142 308 -268 369 -68 33 -139 47 -1277 255 -663 121 -1223
221 -1245 223 -22 2 -67 1 -100 -3z m1403 -688 c165 -26 247 -42 253 -52 13
-22 11 -49 -6 -55 -21 -8 -496 64 -512 78 -14 11 -18 50 -6 61 9 9 -1 11 271
-32z m550 -71 c37 -35 23 -110 -20 -110 -50 0 -79 78 -42 114 21 21 36 20 62
-4z m-489 -4944 c45 -32 86 -105 97 -172 3 -22 1 -67 -6 -100 -34 -164 -158
-284 -294 -284 -91 0 -145 33 -189 115 -34 62 -31 191 5 267 30 64 106 151
153 175 81 43 171 42 234 -1z"/>
<path d="M1807 5288 c-253 -26 -485 -131 -654 -295 -135 -132 -200 -264 -216
-435 l-5 -48 148 0 147 0 7 58 c21 182 197 367 416 436 223 71 500 56 688 -36
89 -43 188 -142 230 -229 57 -116 66 -171 67 -404 l0 -210 -405 -6 c-441 -6
-532 -15 -720 -74 -386 -121 -615 -377 -637 -711 -22 -335 148 -609 465 -748
103 -45 227 -67 387 -67 162 0 273 17 401 62 186 66 315 147 442 277 51 53 72
69 72 56 0 -45 21 -205 36 -271 l15 -73 160 0 c126 0 159 3 159 13 0 8 -9 39
-19 69 -52 153 -54 183 -61 1093 -6 822 -7 853 -28 930 -41 157 -105 268 -216
373 -153 145 -328 217 -591 242 -124 11 -163 11 -288 -2z m831 -1686 l2 -292
-26 -53 c-119 -237 -354 -407 -649 -468 -91 -19 -306 -17 -385 4 -191 51 -340
183 -391 348 -26 84 -26 225 1 310 76 247 355 406 770 439 52 4 226 7 385 6
l290 -1 3 -293z"/>
</g>
</svg>
