<?xml version="1.0" encoding="UTF-8"?>
<svg version="1.1" xmlns="http://www.w3.org/2000/svg" width="2242" height="711">
<path d="M0 0 C1.49456886 0.27406533 2.98936883 0.54687279 4.484375 0.81854248 C8.51561597 1.55471818 12.54342982 2.30825892 16.57083607 3.06509256 C20.88415354 3.87239637 25.20051767 4.66309232 29.51654053 5.45578003 C37.75744036 6.97184457 45.99559308 8.50232497 54.23282981 10.03815353 C64.19948707 11.8957248 74.16953354 13.7348255 84.13964844 15.57373047 C94.86256664 17.55198561 105.58481547 19.53366188 116.30432129 21.53033447 C119.867235 22.19374494 123.4301796 22.85698916 126.99316406 23.52001953 C128.31025722 23.76512166 128.31025722 23.76512166 129.65395832 24.01517534 C142.26825908 26.36081367 154.89059934 28.65823488 167.51964045 30.9230988 C172.80357227 31.87200615 178.0862738 32.82774571 183.36900783 33.78329599 C188.33069412 34.67977589 193.29429567 35.56443114 198.25971031 36.44001007 C201.31235082 36.98123611 204.36285275 37.53384225 207.41289997 38.08947802 C208.80788077 38.34118588 210.20371426 38.58822649 211.60046673 38.8299098 C227.08551668 41.51402582 239.97380773 46.21768945 249.57128906 59.13183594 C258.33075959 72.0894791 261.52854581 86.16166553 261.45996094 101.59326172 C261.45802734 102.64191406 261.45609375 103.69056641 261.45410156 104.77099609 C261.40761738 113.32925109 261.07999109 121.85666149 260.5753479 130.39907837 C260.50782035 131.54327964 260.50782035 131.54327964 260.4389286 132.71059608 C260.40461927 133.29062574 260.37030994 133.8706554 260.33496094 134.46826172 C243.86935271 132.98782352 227.45541772 131.1476734 211.03588867 129.2277832 C208.25118847 128.90356869 205.4664122 128.58000955 202.68164062 128.25640869 C195.95922346 127.47482352 189.23708323 126.69088177 182.51504724 125.9060257 C177.05371468 125.26840567 171.59228412 124.63163125 166.13078499 123.99543953 C165.34935794 123.90441231 164.56793089 123.81338509 163.76282423 123.71959947 C162.17488853 123.53462586 160.58695267 123.34965367 158.99901665 123.16468287 C144.1771942 121.43805371 129.35569441 119.70866773 114.53430171 117.97835404 C101.82107122 116.49422903 89.10754143 115.01269027 76.39379883 113.53295898 C61.59348281 111.8103747 46.79336929 110.08606587 31.99356419 108.35909706 C30.41713274 108.1751513 28.84070097 107.99120831 27.26426888 107.80726814 C26.48878326 107.71678319 25.71329764 107.62629824 24.91431246 107.53307132 C19.45181011 106.895823 13.98916284 106.25982664 8.52645683 105.62432671 C1.88177916 104.85129536 -4.76267975 104.07641538 -11.40686161 103.29913359 C-14.79562133 102.90274277 -18.18447466 102.50720267 -21.57359886 102.11393929 C-25.24320698 101.68767391 -28.91242449 101.2581923 -32.58155823 100.8278656 C-33.65672072 100.70374139 -34.7318832 100.57961717 -35.83962637 100.45173162 C-37.31084807 100.27816707 -37.31084807 100.27816707 -38.81179142 100.10109615 C-39.65857584 100.00231385 -40.50536026 99.90353155 -41.37780482 99.80175585 C-43.52642409 99.48847271 -45.5709714 99.03655597 -47.66503906 98.46826172 C-47.661674 99.42722125 -47.65830894 100.38618078 -47.6548419 101.37419969 C-47.57496198 126.60319757 -47.81270208 151.81580352 -48.25683999 177.04060972 C-48.34518617 182.10166235 -48.42958617 187.16278123 -48.51451111 192.22389221 C-48.66137813 200.94673972 -48.81056927 209.6695448 -48.96141052 218.39232445 C-49.17982974 231.02494007 -49.39418189 243.65762237 -49.60756141 256.29032401 C-49.95452516 276.82713605 -50.30415577 297.36390171 -50.65576172 317.90063477 C-50.67669602 319.12341097 -50.69763033 320.34618718 -50.719199 321.60601721 C-50.74016002 322.83034184 -50.76112103 324.05466646 -50.78271723 325.31609184 C-51.08059059 342.71502958 -51.3778376 360.11397788 -51.67431641 377.51293945 C-51.69522538 378.73994932 -51.71613434 379.9669592 -51.73767692 381.23115119 C-52.08687209 401.72636783 -52.43469427 422.22160765 -52.78180838 442.71685964 C-52.99524677 455.31413724 -53.21006128 467.91139 -53.42670715 480.50861285 C-53.57495116 489.13179767 -53.72203504 497.75500176 -53.8682276 506.37822159 C-53.95241029 511.34086395 -54.03714891 516.30349516 -54.12341118 521.26610184 C-54.2025971 525.82192621 -54.28017607 530.3777752 -54.35656446 534.93364731 C-54.38423215 536.5674263 -54.41245949 538.20119596 -54.44135529 539.83495369 C-54.65100388 551.71364163 -54.69470279 563.58780557 -54.66503906 575.46826172 C-35.9832293 572.49361403 -17.30293752 569.50951065 1.37638664 566.51929951 C3.63682439 566.15746434 5.89727677 565.79572068 8.1577301 565.43398285 C47.97290689 559.06149788 87.77193365 552.59717227 127.54980469 545.99560547 C128.48436564 545.84054244 129.41892659 545.68547941 130.38180757 545.5257175 C148.86377926 542.45909316 167.34472067 539.38632489 185.82329446 536.29928786 C192.77435304 535.13812724 199.7258192 533.97942878 206.67757624 532.82245725 C211.49479455 532.02049439 216.31138641 531.21490147 221.12751168 530.40640169 C224.06075911 529.91481797 226.99455177 529.42655367 229.92851007 528.93923247 C231.91660351 528.60797218 233.9040182 528.2726462 235.89140797 527.93719006 C237.07150786 527.74184831 238.25160776 527.54650656 239.46746826 527.34524536 C240.4869392 527.17471209 241.50641014 527.00417881 242.55677414 526.82847786 C245.18762302 526.48736536 247.6859951 526.40020051 250.33496094 526.46826172 C251.06982133 588.93139531 251.06982133 588.93139531 230.05371094 610.84716797 C220.12925765 620.37904003 208.69290999 623.43165966 195.53417969 626.26904297 C193.9459707 626.6209873 192.35799541 626.97398762 190.77023315 627.32794189 C186.43545286 628.29094181 182.09743198 629.2385302 177.75865555 630.18333817 C173.11477689 631.19728742 168.47400677 632.22528876 163.83276367 633.2512207 C153.56418501 635.5179359 143.29140395 637.76519044 133.0177002 640.00854492 C126.11211369 641.51647765 119.20738735 643.02832681 112.30273438 644.54052734 C93.26624241 648.70895667 74.22844481 652.87138473 55.18725586 657.01831055 C54.07870082 657.2598137 52.97014578 657.50131685 51.82799816 657.75013828 C46.35885102 658.94111472 40.8891201 660.12929212 35.41819763 661.31208801 C25.80363787 663.39273127 16.19409948 665.48885631 6.60265827 667.67397785 C2.41371956 668.6272544 -1.77789767 669.56843493 -5.96974373 670.50883293 C-7.9181401 670.9496219 -9.86519316 671.39640267 -11.81066704 671.84991646 C-28.77975294 675.80385927 -45.60700517 678.77045173 -61.63378906 669.80810547 C-72.20261309 662.73802676 -78.96085908 652.68977085 -82.19838047 640.45228863 C-82.87727531 636.11112682 -82.82162798 631.82268817 -82.82298279 627.43476868 C-82.82635733 626.38155044 -82.82973188 625.32833221 -82.83320868 624.24319828 C-82.84101716 620.59463564 -82.83882585 616.94617558 -82.8347168 613.29760742 C-82.83424374 611.98057032 -82.83377069 610.66353322 -82.83328331 609.30658591 C-82.80289497 563.97616357 -81.89185926 518.64821736 -81.14845494 473.32537816 C-80.99243954 463.81023122 -80.8387333 454.29504899 -80.68652153 444.77984047 C-80.67010306 443.75365685 -80.67010306 443.75365685 -80.6533529 442.70674224 C-80.60889457 439.92770133 -80.56444876 437.14866021 -80.52001987 434.36961883 C-80.10653976 408.50701398 -79.68776191 382.64449756 -79.26615958 356.78202396 C-78.89338159 333.91308842 -78.5242327 311.04409728 -78.15844727 288.17504883 C-78.13488106 286.70176537 -78.11131483 285.2284819 -78.08774859 283.75519844 C-78.07609677 283.02674994 -78.06444495 282.29830143 -78.05244003 281.54777873 C-77.9937586 277.87917138 -77.93507279 274.2105641 -77.87638187 270.5419569 C-77.86479788 269.81783536 -77.85321389 269.09371382 -77.84127887 268.3476492 C-77.53313676 249.08776976 -77.22265804 229.82792802 -76.9113912 210.56809884 C-76.90030056 209.88185389 -76.88920992 209.19560894 -76.8777832 208.48856869 C-76.83320884 205.73058233 -76.78863371 202.97259598 -76.74404575 200.21460984 C-76.59023142 190.69994392 -76.43715703 181.18526638 -76.28457689 171.6705806 C-76.08810894 159.42005193 -75.88993573 147.16955256 -75.68918211 134.91909333 C-75.59272504 129.0311922 -75.49695218 123.14328241 -75.40324783 117.25533676 C-75.20921088 105.08958287 -75.00300917 92.92421148 -74.76632619 80.75920653 C-74.69909946 77.30270674 -74.63688104 73.84618195 -74.57946849 70.38950562 C-74.51440911 66.51878282 -74.43567148 62.64858957 -74.34545373 58.77837346 C-74.3017426 56.77753634 -74.2710867 54.77642664 -74.24112231 52.77533644 C-73.82076714 36.58494629 -69.37917125 22.51235617 -58.01660156 10.65576172 C-41.29468125 -4.89951299 -21.09486928 -4.02415998 0 0 Z M83.33496094 64.46826172 C83.00496094 65.78826172 82.67496094 67.10826172 82.33496094 68.46826172 C86.08792235 72.09471171 90.20306936 72.37922308 95.15917969 73.07373047 C96.4504351 73.26712761 96.4504351 73.26712761 97.76777649 73.46443176 C99.58842273 73.7345648 101.40992594 73.99897557 103.23217773 74.25805664 C105.99718613 74.65215925 108.75878533 75.06549316 111.52050781 75.48193359 C113.29572938 75.74285205 115.0711156 76.00265317 116.84667969 76.26123047 C118.07060677 76.44397774 118.07060677 76.44397774 119.31925964 76.63041687 C124.70782668 77.38637622 129.89322134 77.57333561 135.33496094 77.46826172 C135.33496094 75.81826172 135.33496094 74.16826172 135.33496094 72.46826172 C130.41774281 70.64706982 125.62044898 69.73972083 120.46386719 68.96044922 C119.62331284 68.83010284 118.78275848 68.69975647 117.91673279 68.56546021 C116.14630152 68.29235625 114.37546218 68.02188603 112.60424805 67.75390625 C109.90839621 67.3449207 107.2144537 66.92475415 104.52050781 66.50341797 C102.79339764 66.23842049 101.06618714 65.97407587 99.33886719 65.71044922 C98.54074112 65.58548065 97.74261505 65.46051208 96.92030334 65.33175659 C92.33407134 64.64664279 87.97214787 64.3456929 83.33496094 64.46826172 Z M158.45996094 74.53076172 C157.08389318 76.52725102 157.08389318 76.52725102 157.33496094 79.46826172 C158.07696747 82.65908222 158.07696747 82.65908222 160.89746094 84.34326172 C161.70183594 84.71451172 162.50621094 85.08576172 163.33496094 85.46826172 C166.36459656 83.83297983 166.36459656 83.83297983 167.14746094 81.65576172 C167.40340403 78.66975896 166.86383462 77.03954927 165.33496094 74.46826172 C162.48447477 73.2988315 161.17479269 72.99235706 158.45996094 74.53076172 Z M83.12792969 577.21435547 C75.55199485 586.73791626 74.46528498 596.67794055 75.33496094 608.46826172 C76.94232763 614.79121624 81.07510843 618.8341818 86.33496094 622.46826172 C91.28958534 625.26317805 96.45135626 625.26373887 101.82714844 623.78076172 C112.27350782 619.97053945 118.52099584 613.25391227 123.37402344 603.34716797 C126.41479207 595.60315441 126.83394474 586.40394841 123.83496094 578.59326172 C121.15244737 573.36332519 116.58992386 569.09574318 111.33496094 566.46826172 C98.97322928 565.22676786 91.58920145 568.31397579 83.12792969 577.21435547 Z " fill="#1A2C38" transform="translate(82.6650390625,2.53173828125)"/>
<path d="M0 0 C25.74 0 51.48 0 78 0 C87.17865657 28.68330178 87.17865657 28.68330178 90.671875 40.6171875 C91.07670881 41.99158394 91.48183535 43.36589418 91.88722229 44.74012756 C92.73933238 47.63040306 93.58982352 50.52114704 94.43887329 53.412323 C96.47713759 60.35238654 98.5245011 67.28976871 100.57120705 74.22734642 C101.04249141 75.82496298 101.51367114 77.4226104 101.98474693 79.02028847 C107.38594942 97.33838404 112.84428106 115.63931691 118.3125 133.9375 C118.7588389 135.43137341 119.20516871 136.92524953 119.65148926 138.41912842 C122.09968449 146.61314366 124.54908928 154.80679651 127 163 C135.18645045 136.40849243 143.16722524 109.75996705 151 83.0625 C151.42896094 81.60064571 151.85792619 80.13879268 152.28689575 78.67694092 C152.92787566 76.49250631 153.56884793 74.30806945 154.20981312 72.12363052 C154.63368707 70.67905703 155.05756888 69.23448584 155.48145866 67.78991699 C155.90180614 66.35740814 156.3221312 64.9248927 156.74243355 63.49237061 C160.56350249 50.47020999 164.40506777 37.45424328 168.27416992 24.44625854 C168.87871122 22.41336522 169.48256257 20.38026659 170.08569336 18.34695435 C170.90287579 15.59270955 171.72248509 12.83920038 172.54296875 10.0859375 C172.78049362 9.28424637 173.01801849 8.48255524 173.26274109 7.65657043 C174.88511885 2.2297623 174.88511885 2.2297623 176 0 C201.74 0 227.48 0 254 0 C240.16075068 41.51774796 240.16075068 41.51774796 233.1875 61.5625 C232.41317137 63.79380886 231.63900549 66.02517421 230.86499023 68.2565918 C225.81523169 82.80774336 220.74217489 97.35077303 215.66146851 111.8911438 C209.82355972 128.59976329 204.04465644 145.32854747 198.27175903 162.0597229 C192.74803524 178.06708327 187.1979799 194.06481646 181.60855103 210.04934692 C176.93794791 223.40842876 172.30918155 236.78160427 167.69677734 250.16088867 C164.1361994 260.48888205 160.56505443 270.81321313 156.99078369 281.13647461 C156.10227149 283.70441882 155.21556542 286.27297669 154.32958984 288.84179688 C137.55962264 337.40687624 137.55962264 337.40687624 119 356 C118.38898438 356.62261719 117.77796875 357.24523437 117.1484375 357.88671875 C98.80415797 375.25523873 74.5344921 377.84437183 50.40136719 377.20117188 C32.11992676 376.11992676 32.11992676 376.11992676 28 372 C27.90646837 370.31198015 27.88255209 368.62004793 27.88647461 366.92944336 C27.88655014 365.84839828 27.88662567 364.76735321 27.88670349 363.65354919 C27.89186478 362.4775264 27.89702606 361.3015036 27.90234375 360.08984375 C27.9037587 358.89267227 27.90517365 357.69550079 27.90663147 356.46205139 C27.91225021 352.62050934 27.92480589 348.77902457 27.9375 344.9375 C27.94251259 342.34049563 27.94707591 339.74349035 27.95117188 337.14648438 C27.96222573 330.76430321 27.97898208 324.3821557 28 318 C29.04172363 317.97812622 29.04172363 317.97812622 30.10449219 317.95581055 C33.32015765 317.88030164 36.53489827 317.78398946 39.75 317.6875 C40.84183594 317.66494141 41.93367188 317.64238281 43.05859375 317.61914062 C55.42458811 317.21669702 67.84153356 315.21750534 76.89453125 306.08984375 C82.8200329 298.50573667 85.89335348 289.03638766 89.19384766 280.09130859 C90 278 90 278 91.29296875 275.45703125 C93.51285074 267.74263471 89.60850993 259.15292737 87.0546875 251.9453125 C86.65310425 250.78797607 86.251521 249.63063965 85.83776855 248.43823242 C84.75138913 245.31308269 83.65678088 242.19106083 82.55828094 239.07016754 C81.40511141 235.78731885 80.26294139 232.50064709 79.11962891 229.21435547 C77.05567016 223.2865802 74.98302146 217.36189243 72.90598488 211.43868828 C70.91988967 205.77406406 68.94286697 200.10630762 66.96875 194.4375 C65.17645412 189.29238245 63.38346865 184.14751519 61.58544922 179.00439453 C56.69443682 165.01300158 51.84360348 151.00786776 47 137 C41.22611925 120.30252812 35.43150847 103.61258684 29.60333252 86.93399048 C23.38850925 69.14659925 17.2267162 51.34096044 11.07617188 33.53125 C10.35034437 31.43096057 9.62443546 29.33069927 8.8984375 27.23046875 C8.55524475 26.23679291 8.212052 25.24311707 7.85845947 24.21932983 C5.56526755 17.59300587 3.21641745 10.98958473 0.79931641 4.4074707 C0 2 0 2 0 0 Z " fill="#27B2B2" transform="translate(1892,186)"/>
<path d="M0 0 C1.23177979 0.00491455 2.46355957 0.0098291 3.73266602 0.01489258 C24.05517173 0.2765903 44.42669295 5.69504267 59.5 20.0625 C64.20436208 25.03826758 67.83191963 30.36044227 71.1875 36.3125 C71.86232422 37.46105469 71.86232422 37.46105469 72.55078125 38.6328125 C83.03095684 57.77616729 84.66482907 80.73920263 84.52807617 102.09448242 C84.52722717 103.98888638 84.52771035 105.88329131 84.52940369 107.7776947 C84.53025442 112.85500951 84.51278047 117.93210593 84.49168181 123.00937057 C84.47275887 128.33975691 84.4711524 133.67014982 84.46760559 139.00056458 C84.45833054 149.06519732 84.43377909 159.12973075 84.40355712 169.19432002 C84.36987065 180.6649032 84.35349149 192.13549145 84.33847082 203.60611188 C84.30722481 227.17497544 84.25227043 250.74370309 84.1875 274.3125 C60.4275 274.3125 36.6675 274.3125 12.1875 274.3125 C12.16562622 266.19793213 12.16562622 266.19793213 12.14331055 257.91943359 C12.09292582 240.0260524 12.02647257 222.13275737 11.95178509 204.2394619 C11.90690242 193.39304962 11.8674705 182.54666962 11.84106445 171.70019531 C11.81802328 162.24163666 11.78455727 152.78318082 11.73879844 143.32470381 C11.71494853 138.3208482 11.69616596 133.3170939 11.68988609 128.31318283 C11.6837978 123.59355977 11.66366422 118.87419563 11.63322449 114.15466881 C11.62450385 112.4319063 11.62070913 110.70910987 11.62249184 108.98632622 C11.63234161 95.06285535 11.36194329 80.66722276 2.1875 69.3125 C-6.71770408 60.47136213 -19.8729499 60.00690846 -31.65576172 59.99780273 C-44.94889018 60.19116981 -56.51973873 64.25806426 -66.203125 73.625 C-71.80471012 79.75047437 -74.1133179 83.60298664 -74.0909729 92.00665283 C-74.0967653 92.78594548 -74.1025577 93.56523813 -74.10852563 94.3681457 C-74.12554161 96.98147491 -74.1284035 99.59462767 -74.13134766 102.20800781 C-74.14064473 104.08049961 -74.15081307 105.95298726 -74.16178894 107.82546997 C-74.18912788 112.91183893 -74.2042499 117.99818013 -74.21721697 123.08460331 C-74.23283046 128.39910637 -74.25962635 133.7135526 -74.2852478 139.02801514 C-74.33206716 149.09307849 -74.368796 159.1581525 -74.40192068 169.22326922 C-74.44011976 180.68146202 -74.48953571 192.1395978 -74.53990483 203.59774256 C-74.64327167 227.16929154 -74.73103579 250.74086444 -74.8125 274.3125 C-98.5725 274.3125 -122.3325 274.3125 -146.8125 274.3125 C-146.8125 185.5425 -146.8125 96.7725 -146.8125 5.3125 C-124.3725 5.3125 -101.9325 5.3125 -78.8125 5.3125 C-77.8225 17.1925 -77.8225 17.1925 -76.8125 29.3125 C-76.3175 31.2925 -76.3175 31.2925 -75.8125 33.3125 C-75.38582031 32.77882812 -74.95914062 32.24515625 -74.51953125 31.6953125 C-55.8176858 9.40733999 -28.56920207 -0.1350836 0 0 Z " fill="#27B2B2" transform="translate(1304.8125,180.6875)"/>
<path d="M0 0 C23.76 0 47.52 0 72 0 C72 21.78 72 43.56 72 66 C87.18 66 102.36 66 118 66 C118 83.82 118 101.64 118 120 C102.82 120 87.64 120 72 120 C72.06298889 137.78583548 72.1382661 155.57147687 72.23571491 173.35715103 C72.2805779 181.61634287 72.32001416 189.8754925 72.34643555 198.13476562 C72.36949287 205.33805436 72.40297641 212.54120846 72.44870156 219.74439025 C72.47253011 223.55434742 72.49132647 227.36417212 72.49761391 231.17420197 C72.50371215 234.76939234 72.52387999 238.3642442 72.55427551 241.95930862 C72.5670926 243.88926489 72.56549884 245.81930055 72.5632782 247.7492981 C72.65434324 256.30260923 72.96015609 266.32752295 78.125 273.5625 C86.13275712 280.35168538 96.13231157 279.36401586 106.0625 279.1875 C110.991875 279.125625 115.92125 279.06375 121 279 C121 297.15 121 315.3 121 334 C91.66129773 340.9854053 59.94222985 345.15575521 32 331 C16.2010929 321.07975601 6.97610658 307.43942102 2.5625 289.4375 C0.94977241 282.37187286 -0.12613953 275.53003904 -0.12025452 268.27381897 C-0.12162918 266.96000244 -0.12300385 265.64618591 -0.12442017 264.29255676 C-0.1208819 262.85397316 -0.11724711 261.41538978 -0.11352539 259.97680664 C-0.11324305 258.44869997 -0.11340216 256.92059316 -0.1139679 255.39248657 C-0.11425405 251.25872343 -0.1083867 247.12498948 -0.10139394 242.99123311 C-0.09513014 238.66574201 -0.09455421 234.34025019 -0.09336853 230.01475525 C-0.09026413 221.83035189 -0.08206276 213.64596194 -0.07201904 205.46156448 C-0.06083022 196.14114602 -0.05534048 186.8207269 -0.05032361 177.50030339 C-0.0398794 158.33352645 -0.021545 139.16676789 0 120 C-12.87 120 -25.74 120 -39 120 C-39 102.18 -39 84.36 -39 66 C-26.13 66 -13.26 66 0 66 C0 44.22 0 22.44 0 0 Z " fill="#27B2B2" transform="translate(1762,120)"/>
<path d="M0 0 C23.76 0 47.52 0 72 0 C72 21.78 72 43.56 72 66 C87.18 66 102.36 66 118 66 C118 83.82 118 101.64 118 120 C102.82 120 87.64 120 72 120 C72.08555764 137.82033538 72.17920914 155.64056637 72.28752708 173.46077538 C72.33756759 181.73571312 72.38401123 190.01064137 72.421875 198.28564453 C72.45490096 205.50133843 72.49479012 212.71695685 72.54279006 219.93256724 C72.56795005 223.75026192 72.58976181 227.5679072 72.60334396 231.38566208 C72.6162603 234.98570432 72.63841571 238.58557625 72.66738319 242.18552399 C72.68064746 244.12302856 72.68436187 246.06059132 72.68769836 247.99813843 C72.78057744 261.92726127 72.78057744 261.92726127 79 274 C84.03406042 278.86047213 90.77586007 279.25082274 97.46484375 279.1953125 C98.70613037 279.19031738 99.94741699 279.18532227 101.22631836 279.18017578 C102.7810083 279.16196777 104.33569824 279.14375977 105.9375 279.125 C110.908125 279.08375 115.87875 279.0425 121 279 C121 297.15 121 315.3 121 334 C91.02438606 341.13705094 56.81093297 345.81156452 28.8984375 329.1484375 C12.30030548 317.67149222 4.69577097 301.35581743 1 282 C0.25088624 277.37701485 -0.1240515 272.95550509 -0.12025452 268.27381897 C-0.12162918 266.96000244 -0.12300385 265.64618591 -0.12442017 264.29255676 C-0.1208819 262.85397316 -0.11724711 261.41538978 -0.11352539 259.97680664 C-0.11324305 258.44869997 -0.11340216 256.92059316 -0.1139679 255.39248657 C-0.11425405 251.25872343 -0.1083867 247.12498948 -0.10139394 242.99123311 C-0.09513014 238.66574201 -0.09455421 234.34025019 -0.09336853 230.01475525 C-0.09026413 221.83035189 -0.08206276 213.64596194 -0.07201904 205.46156448 C-0.06083022 196.14114602 -0.05534048 186.8207269 -0.05032361 177.50030339 C-0.0398794 158.33352645 -0.021545 139.16676789 0 120 C-12.87 120 -25.74 120 -39 120 C-39 102.18 -39 84.36 -39 66 C-26.13 66 -13.26 66 0 66 C0 44.22 0 22.44 0 0 Z " fill="#27B2B2" transform="translate(1591,120)"/>
<path d="M0 0 C1.22920166 0.00491455 2.45840332 0.0098291 3.72485352 0.01489258 C29.08236834 0.34108266 50.28376412 8.97556818 68.75 26.4375 C99.61635164 58.28373582 104.99687506 105.21090056 104.4375 147.5078125 C103.5615572 186.49821618 94.85733812 224.38811455 67.25 253.3125 C66.45916016 254.21548828 66.45916016 254.21548828 65.65234375 255.13671875 C55.97665476 265.75275603 42.82466977 272.28462316 29.25 276.3125 C28.12980469 276.65152344 27.00960937 276.99054688 25.85546875 277.33984375 C-1.96469214 284.23924365 -33.66229546 278.89543215 -58.09423828 264.34765625 C-66.79636676 258.90722205 -73.490214 251.572286 -80.75 244.3125 C-81.08 288.2025 -81.41 332.0925 -81.75 377.3125 C-91.98 377.3125 -102.21 377.3125 -112.75 377.3125 C-112.75 254.5525 -112.75 131.7925 -112.75 5.3125 C-103.18 5.3125 -93.61 5.3125 -83.75 5.3125 C-83.09 16.8625 -82.43 28.4125 -81.75 40.3125 C-79.11 37.0125 -76.47 33.7125 -73.75 30.3125 C-54.89210257 9.08968709 -27.87286976 -0.13222606 0 0 Z M-66.9375 52.5625 C-76.68761647 63.99782179 -82.20318445 74.85761278 -82.18579102 89.86621094 C-82.19586685 91.11752808 -82.20594269 92.36884521 -82.21632385 93.65808105 C-82.23987461 97.07581941 -82.24985263 100.49301082 -82.25177121 103.91079235 C-82.25391058 106.05121105 -82.26032839 108.19157324 -82.26826286 110.33197784 C-82.29598219 117.81412873 -82.308273 125.29611978 -82.3059082 132.77832031 C-82.30410795 139.72847541 -82.33573114 146.6779304 -82.38313919 153.62790847 C-82.42250605 159.61461696 -82.43845402 165.60109797 -82.43654197 171.58793473 C-82.43578094 175.15485943 -82.44411294 178.72116167 -82.47607613 182.28795624 C-82.5108139 186.2728525 -82.49679544 190.2562038 -82.47875977 194.24121094 C-82.49561829 195.4062616 -82.51247681 196.57131226 -82.52984619 197.77166748 C-82.36474466 212.18908092 -73.43042455 222.4052745 -63.9375 232.5 C-59.37959131 236.92411489 -54.24078235 240.16167131 -48.75 243.3125 C-47.94691406 243.7765625 -47.14382813 244.240625 -46.31640625 244.71875 C-28.63435517 254.24208786 -4.96955232 256.55488808 14.5 251.6875 C36.57239606 244.63419802 50.21630517 230.35925586 60.875 210.24609375 C78.17487218 173.52891712 78.85238312 120.69587686 66.04052734 82.48583984 C62.23157238 72.01415452 57.27188206 62.00339472 50.25 53.3125 C49.59644531 52.48492187 48.94289063 51.65734375 48.26953125 50.8046875 C37.43924859 37.90303931 22.89990309 29.93914913 6.25 27.3125 C-22.31846975 25.04353309 -46.84686774 31.30606703 -66.9375 52.5625 Z " fill="#1A2C37" transform="translate(763.75,180.6875)"/>
<path d="M0 0 C22.32647337 18.19556963 33.76213479 45.6181328 39.16918945 73.29785156 C39.33290039 74.11946777 39.49661133 74.94108398 39.6652832 75.78759766 C42.4204161 90.48828094 42.45420551 105.26911145 42.48168945 120.17285156 C42.4853653 121.13158173 42.48904114 122.09031189 42.49282837 123.07809448 C42.52644195 139.89009653 41.60164295 156.29788398 37.54418945 172.67285156 C37.28549072 173.72520996 37.02679199 174.77756836 36.76025391 175.86181641 C29.4971569 204.17442474 15.0132846 230.2866392 -10.01831055 246.48535156 C-33.93673255 260.54512656 -62.82195227 263.21218893 -89.72631836 256.85009766 C-110.48027812 251.40398896 -129.78137634 240.69709718 -142.83081055 223.29785156 C-143.16081055 267.51785156 -143.49081055 311.73785156 -143.83081055 357.29785156 C-153.73081055 357.29785156 -163.63081055 357.29785156 -173.83081055 357.29785156 C-173.83081055 234.53785156 -173.83081055 111.77785156 -173.83081055 -14.70214844 C-164.59081055 -14.70214844 -155.35081055 -14.70214844 -145.83081055 -14.70214844 C-144.08916218 -12.96050007 -144.61868443 -10.53499102 -144.54956055 -8.16308594 C-144.51217773 -7.02484375 -144.47479492 -5.88660156 -144.4362793 -4.71386719 C-144.38407227 -2.91369141 -144.38407227 -2.91369141 -144.33081055 -1.07714844 C-144.07427553 9.15528308 -144.07427553 9.15528308 -142.83081055 19.29785156 C-142.1759668 18.47542969 -141.52112305 17.65300781 -140.84643555 16.80566406 C-107.05202576 -24.85592886 -42.72687277 -33.65710291 0 0 Z M-125.83081055 30.29785156 C-126.52045898 30.96300781 -127.21010742 31.62816406 -127.9206543 32.31347656 C-135.45613825 40.13247377 -143.89113677 52.33489697 -144.00489807 63.42378235 C-144.01783401 64.48468582 -144.03076996 65.54558929 -144.0440979 66.63864136 C-144.05307098 67.80275543 -144.06204407 68.96686951 -144.07128906 70.16625977 C-144.08428543 71.39266678 -144.0972818 72.61907379 -144.110672 73.88264465 C-144.22262003 85.21680783 -144.28327927 96.55164248 -144.32743931 107.88625813 C-144.36058695 116.2519046 -144.41996296 124.61645899 -144.51495034 132.9816373 C-144.57959757 138.87654466 -144.61302447 144.77115733 -144.62418884 150.66640538 C-144.63170231 154.17958997 -144.65247157 157.69145578 -144.70721626 161.20424843 C-145.27520143 182.22463713 -145.27520143 182.22463713 -135.83081055 200.29785156 C-135.07961441 201.31611526 -134.32841827 202.33437897 -133.55445862 203.38349915 C-121.03673647 220.1474965 -103.1257469 228.57742921 -83.14331055 232.87597656 C-63.30766556 235.40221437 -43.75944777 233.60591358 -26.83081055 222.29785156 C-23.25149434 219.51280752 -20.01653306 216.52202245 -16.83081055 213.29785156 C-16.1450293 212.63398438 -15.45924805 211.97011719 -14.75268555 211.28613281 C8.55938583 187.19393306 12.65117105 147.50060985 12.40356445 115.66381836 C11.71497167 85.72796445 6.66419314 53.54218501 -13.83081055 30.29785156 C-14.5475293 29.47542969 -15.26424805 28.65300781 -16.00268555 27.80566406 C-26.83531752 16.15881465 -42.24355474 7.9764176 -58.32885742 7.1730957 C-84.71315427 6.44648629 -106.45651455 11.27465483 -125.83081055 30.29785156 Z " fill="#1A2C38" transform="translate(544.830810546875,200.7021484375)"/>
<path d="M0 0 C1.01622437 0.00273422 1.01622437 0.00273422 2.05297852 0.00552368 C30.28823161 0.13307257 55.05945671 7.18911444 75.9375 27.0625 C95.65021286 47.3244835 97.95041623 73.56100403 97.97021484 100.42993164 C97.97489926 101.88559111 97.98004541 103.34124915 97.98561096 104.79690552 C97.99678003 107.90308045 98.00526725 111.00924643 98.01173019 114.11543465 C98.0225493 119.04968299 98.04282922 123.98386609 98.06484985 128.91807556 C98.12631097 142.93973786 98.18064519 156.96139434 98.21386719 170.9831543 C98.23234704 178.74951766 98.26144254 186.51576918 98.3018719 194.28205007 C98.32271092 198.37322728 98.33836578 202.4642651 98.34067917 206.55549812 C98.19757172 237.654463 98.19757172 237.654463 105.04296875 267.81640625 C105.8125 270.3125 105.8125 270.3125 105.8125 274.3125 C94.9225 274.3125 84.0325 274.3125 72.8125 274.3125 C69.29218595 262.57811985 67.64616875 251.48845153 66.8125 239.3125 C65.83023438 240.45525391 65.83023438 240.45525391 64.828125 241.62109375 C45.98650403 263.11641491 18.46294977 276.98127237 -10.1875 279.3125 C-36.01806689 280.63296372 -61.42835102 278.18813472 -82.1875 261.3125 C-83.44820312 260.29542969 -83.44820312 260.29542969 -84.734375 259.2578125 C-99.56403086 246.63013584 -108.10985444 229.58496584 -109.84594727 210.22875977 C-111.21188129 191.02125958 -107.49601096 172.0990184 -95.15625 156.79296875 C-92.90732425 154.21541476 -90.58662619 151.75063637 -88.1875 149.3125 C-87.42566406 148.53777344 -86.66382812 147.76304687 -85.87890625 146.96484375 C-59.63620725 121.84252271 -19.7632884 117.08689713 14.859375 117.21484375 C16.36680046 117.21671388 17.87422654 117.21813496 19.38165283 117.21913147 C23.30735009 117.22290985 27.23300905 117.2326989 31.15869141 117.24383545 C35.18130984 117.25415143 39.20393459 117.25865069 43.2265625 117.26367188 C51.08855904 117.27432644 58.95052473 117.29134503 66.8125 117.3125 C66.76772223 111.90828676 66.69726045 106.50517374 66.60498047 101.1015625 C66.57709784 99.27092339 66.55572432 97.44017121 66.54150391 95.609375 C66.3814811 76.15060217 63.98589947 58.19153391 50.07421875 43.37890625 C43.38379977 37.26624365 35.41487025 33.0410051 26.8125 30.3125 C25.44931641 29.86390625 25.44931641 29.86390625 24.05859375 29.40625 C1.45337271 23.29520151 -24.12385011 25.93932384 -44.58984375 37.1796875 C-56.87983623 44.28629914 -65.22505628 53.553665 -70.27734375 66.84375 C-71.55313055 71.33790796 -71.55313055 71.33790796 -72.1875 80.3125 C-82.4175 80.3125 -92.6475 80.3125 -103.1875 80.3125 C-103.1875 60.14680683 -96.25559593 44.48284175 -82.1875 30.3125 C-59.74470659 8.66613649 -30.59917385 -0.13097661 0 0 Z M-66.1875 166.3125 C-76.16045469 177.87250642 -80.15638898 191.2408936 -79.1875 206.3125 C-77.18214555 220.58790454 -71.20248847 231.04100823 -60.1875 240.3125 C-47.75887886 249.28658204 -34.22036083 252.71491189 -19.0625 252.625 C-17.55417603 252.61654053 -17.55417603 252.61654053 -16.01538086 252.60791016 C9.71021473 252.19308056 33.42349229 242.4062309 51.37402344 223.87402344 C55.26006952 219.65556608 58.6904052 215.12369687 61.8125 210.3125 C62.2322258 209.72595642 62.6519516 209.13941284 63.08439636 208.53509521 C67.56064149 201.63086268 67.46479849 195.35471941 67.30078125 187.30859375 C67.29370651 185.98956558 67.28663177 184.67053741 67.27934265 183.3115387 C67.26040957 179.83412785 67.21143298 176.35779018 67.15582275 172.88079834 C67.10433003 169.32107047 67.08176519 165.76116621 67.05664062 162.20117188 C67.0032962 155.23784522 66.91815482 148.27522438 66.8125 141.3125 C58.73481219 141.24199603 50.65725965 141.18919277 42.57933712 141.15706348 C38.82564623 141.14161832 35.07217056 141.12078487 31.31860352 141.08618164 C-2.04269564 140.78715756 -40.73033081 141.17992131 -66.1875 166.3125 Z " fill="#1A2C38" transform="translate(196.1875,180.6875)"/>
<path d="M0 0 C11.22 0 22.44 0 34 0 C35.51013672 4.20169922 35.51013672 4.20169922 37.05078125 8.48828125 C44.70957136 29.76519901 52.45414655 51.00665302 60.375 72.1875 C66.86262319 89.53703385 73.28181684 106.90961984 79.625 124.3125 C90.14294692 153.16436125 100.73778896 181.98822553 111.5 210.75 C111.85594238 211.70229492 112.21188477 212.65458984 112.57861328 213.63574219 C112.8929834 214.47266602 113.20735352 215.30958984 113.53125 216.171875 C113.92666992 217.2252002 113.92666992 217.2252002 114.33007812 218.29980469 C115.00041399 220.07431694 115.00041399 220.07431694 116 222 C124.75446032 197.03003337 133.41051121 172.02711073 142 147 C148.42845399 128.26988486 154.87735184 109.54782173 161.42202759 90.85791016 C165.46260564 79.31626112 169.46683125 67.76240288 173.4453125 56.19921875 C173.68219976 55.51075678 173.91908703 54.82229481 174.16315269 54.11297035 C176.53395774 47.22191852 178.90283603 40.33020716 181.26874924 33.43747425 C181.93620383 31.49330739 182.60406357 29.5492802 183.27206421 27.6053009 C184.09153888 25.22016621 184.91022259 22.83475955 185.72793579 20.44902039 C186.10026337 19.36562881 186.47259094 18.28223724 186.85620117 17.16601562 C187.1751384 16.23648071 187.49407562 15.3069458 187.82267761 14.34924316 C189.50896477 9.55209856 191.26227229 4.77875121 193 0 C203.89 0 214.78 0 226 0 C223.75022896 10.12396968 223.75022896 10.12396968 222.06738281 14.63525391 C221.5038913 16.15954514 221.5038913 16.15954514 220.92901611 17.71463013 C220.52447205 18.79106781 220.11992798 19.86750549 219.703125 20.9765625 C219.0656131 22.69527054 219.0656131 22.69527054 218.41522217 24.44869995 C217.26954057 27.53548906 216.11898878 30.62040955 214.96655273 33.7046814 C213.02717522 38.90209751 211.10299554 44.10518081 209.17591858 49.30716705 C208.45363312 51.25644121 207.73068341 53.20546815 207.00769043 55.15447998 C203.26699924 65.24460118 199.6085699 75.36200699 196 85.5 C190.46801955 101.02164072 184.77748227 116.48239991 179.0625 131.9375 C171.42807843 152.58520336 163.92090255 173.27473106 156.5 194 C148.17770295 217.24153903 139.73629459 240.43492175 131.16699219 263.58666992 C130.3209 265.8728606 129.47486987 268.15907425 128.62890625 270.4453125 C128.2247348 271.53747574 127.82056335 272.62963898 127.40414429 273.75489807 C125.01614281 280.21816088 122.65879455 286.69133955 120.33984375 293.1796875 C97.44299257 357.2288833 97.44299257 357.2288833 68.6875 371.3125 C52.53175896 378.19087235 33.9894784 379.54352556 16.94921875 374.94921875 C15.98435547 374.47935547 15.98435547 374.47935547 15 374 C13.98026871 370.94080612 13.88466398 368.87581975 13.90234375 365.67578125 C13.90556641 364.64775391 13.90878906 363.61972656 13.91210938 362.56054688 C13.92048828 361.48869141 13.92886719 360.41683594 13.9375 359.3125 C13.94426758 357.68731445 13.94426758 357.68731445 13.95117188 356.02929688 C13.96296257 353.35280915 13.97941937 350.67643223 14 348 C14.81082031 348.0721875 15.62164063 348.144375 16.45703125 348.21875 C19.9696528 348.5131723 23.48293655 348.76475782 27 349 C27.9075 349.06832031 28.815 349.13664062 29.75 349.20703125 C41.09698277 349.67405646 53.69962912 346.6377647 63 340 C63.66 339.54367187 64.32 339.08734375 65 338.6171875 C76.18437921 329.92308022 81.83487453 315.95817133 86.76074219 303.11425781 C87.95135955 300.12223357 89.22074228 297.1781633 90.51368713 294.229599 C91.73634924 291.40349181 92.89896139 288.55459657 94.05355835 285.70010376 C94.63257447 284.29989025 95.23319511 282.90837231 95.85733032 281.52767944 C99.80773878 272.72919502 100.72217642 266.48697166 97.328125 257.3046875 C96.29892884 254.71563293 95.22430355 252.15401543 94.11325073 249.59902954 C92.65412507 246.1925097 91.36249445 242.73330246 90.0670166 239.26196289 C88.71349984 235.64375041 87.31734255 232.04245752 85.92434692 228.43930054 C83.94747226 223.32432114 81.98178058 218.20504481 80.015625 213.0859375 C79.39960167 211.4826786 79.39960167 211.4826786 78.77113342 209.84703064 C74.152029 197.81255238 69.60556755 185.75084137 65.0625 173.6875 C58.6074731 156.55326138 52.13397247 139.42632328 45.625 122.3125 C45.24148376 121.30405029 44.85796753 120.29560059 44.46282959 119.2565918 C43.6819278 117.20322583 42.90102364 115.14986077 42.12011719 113.09649658 C41.72856445 112.06691833 41.33701172 111.03734009 40.93359375 109.9765625 C40.53914062 108.93941101 40.1446875 107.90225952 39.73828125 106.8336792 C36.62559652 98.64818752 33.51687551 90.46119502 30.41015625 82.2734375 C30.17398968 81.6510211 29.9378231 81.0286047 29.69449997 80.38732719 C27.09143176 73.52662964 24.4894349 66.66552686 21.88867188 59.80395508 C20.97916785 57.40445919 20.06966266 55.00496374 19.16015625 52.60546875 C18.71950836 51.44286026 18.27886047 50.28025177 17.82485962 49.08241272 C15.4090052 42.71018475 12.98854156 36.33974617 10.5615387 29.97175598 C9.21978145 26.45067367 7.8802964 22.92872962 6.54116821 19.40664673 C5.93638166 17.8179564 5.33042777 16.22970991 4.72323608 14.64193726 C3.90891794 12.51239203 3.09851039 10.38140014 2.2890625 8.25 C1.84256348 7.07953125 1.39606445 5.9090625 0.93603516 4.703125 C0 2 0 2 0 0 Z " fill="#1A2C38" transform="translate(899,186)"/>
<path d="M0 0 C24.09 0 48.18 0 73 0 C73 88.77 73 177.54 73 269 C48.91 269 24.82 269 0 269 C0 180.23 0 91.46 0 0 Z " fill="#27B2B2" transform="translate(1446,186)"/>
<path d="M0 0 C8.22623477 6.46347017 13.79670677 13.64548043 15.625 24.0625 C16.69296926 36.80498257 14.75917217 47.03934946 6.625 57.0625 C-0.42870195 65.02052271 -10.9959214 68.56417261 -21.3828125 69.265625 C-34.23561231 69.45890019 -45.67428715 67.06852282 -55.41015625 58.2109375 C-63.81366919 49.25432711 -65.71086261 39.60063852 -65.5859375 27.6328125 C-65.01323458 17.93928534 -61.25715897 9.96403261 -54.40625 3.0859375 C-39.48663554 -9.61735742 -16.45937383 -9.44889979 0 0 Z " fill="#27B2B2" transform="translate(1507.375,85.9375)"/>
<path d="M0 0 C2.90363911 2.82353872 5.49414291 5.82102704 8 9 C9.051875 7.63875 9.051875 7.63875 10.125 6.25 C14.13826828 1.45668802 18.87760828 -1.63946851 25 -3 C34.06392428 -3.72972272 40.69868216 -2.89511778 48.25 2.1875 C56.89070369 11.02458332 57.29761837 22.3003098 57.1953125 34.03125 C57.1924826 35.26290894 57.18965271 36.49456787 57.18673706 37.7635498 C57.17559202 41.67580102 57.15049749 45.58781862 57.125 49.5 C57.11382966 52.16145498 57.10583833 54.82290777 57.09765625 57.484375 C57.0756712 63.98967258 57.04118019 70.49479675 57 77 C52.05 77 47.1 77 42 77 C41.98541748 75.37054443 41.97083496 73.74108887 41.95581055 72.06225586 C41.89773638 66.00327874 41.82050298 59.94466969 41.73754883 53.88598633 C41.70434257 51.26625553 41.67629734 48.64645394 41.65356445 46.02661133 C41.61994046 42.25571589 41.56761804 38.48546678 41.51171875 34.71484375 C41.50532883 33.54791489 41.4989389 32.38098602 41.49235535 31.17869568 C41.36693017 24.20469191 40.8716443 18.96560404 36.6875 13.1875 C32.35404907 10.13803453 28.06336659 9.55291512 22.95703125 10.40234375 C18.31386459 11.8203168 15.68521282 14.78592273 13.36401367 18.89868164 C11.21136589 24.22135119 11.51985626 29.83794618 11.48828125 35.49609375 C11.47033005 36.68477554 11.45237885 37.87345734 11.43388367 39.09815979 C11.3798973 42.87790427 11.34592133 46.65752328 11.3125 50.4375 C11.27931675 53.00717887 11.24482616 55.57684121 11.20898438 58.14648438 C11.12417701 64.43089891 11.05730943 70.71527698 11 77 C6.05 77 1.1 77 -4 77 C-4.029729 74.79872437 -4.029729 74.79872437 -4.06005859 72.55297852 C-4.13645263 67.07917884 -4.22511704 61.60563332 -4.31738281 56.13208008 C-4.35553336 53.76852456 -4.39040987 51.40491374 -4.421875 49.04125977 C-4.46782887 45.63277495 -4.52577269 42.22466633 -4.5859375 38.81640625 C-4.59748871 37.76916885 -4.60903992 36.72193146 -4.62094116 35.64295959 C-4.78801388 23.53130707 -4.78801388 23.53130707 -10 13 C-15.47135362 9.42879628 -20.30119588 9.96325114 -26.484375 11.26171875 C-29.913674 12.26686705 -29.913674 12.26686705 -33 14 C-34.83499612 17.71015761 -35.26509096 20.77945824 -35.31884766 24.8918457 C-35.33871735 26.05267166 -35.35858704 27.21349762 -35.37905884 28.40950012 C-35.39061005 29.65237289 -35.40216125 30.89524567 -35.4140625 32.17578125 C-35.43342865 33.45607712 -35.4527948 34.73637299 -35.4727478 36.0554657 C-35.52393948 39.4468778 -35.56363407 42.83832945 -35.60089111 46.22991943 C-35.64101249 49.6956958 -35.69206758 53.16130948 -35.7421875 56.62695312 C-35.83818158 63.41787282 -35.9222351 70.20884808 -36 77 C-40.95 77 -45.9 77 -51 77 C-51 50.93 -51 24.86 -51 -2 C-46.38 -2 -41.76 -2 -37 -2 C-36.67 0.64 -36.34 3.28 -36 6 C-35.59910156 5.60167969 -35.19820312 5.20335937 -34.78515625 4.79296875 C-25.9829588 -3.41043976 -10.71065681 -7.16994382 0 0 Z " fill="#363334" transform="translate(676,633)"/>
<path d="M0 0 C3.63659983 2.57033463 6.3440925 5.88791354 9.01171875 9.421875 C9.53958984 8.73351562 9.53958984 8.73351562 10.078125 8.03125 C14.45382928 2.59303789 18.95589457 -1.21827525 26.01171875 -2.578125 C34.10130141 -3.17906543 41.2310935 -3.11205743 47.9140625 1.828125 C54.60151912 7.8228007 57.2077894 15.64476317 58.01171875 24.421875 C58.14425277 28.51486767 58.12819142 32.60445365 58.109375 36.69921875 C58.10796005 37.8657045 58.1065451 39.03219025 58.10508728 40.23402405 C58.09951081 43.94250097 58.08696259 47.65091647 58.07421875 51.359375 C58.06920071 53.8808585 58.06463834 56.40234295 58.06054688 58.92382812 C58.04954908 65.08986724 58.03230063 71.25586073 58.01171875 77.421875 C53.06171875 77.421875 48.11171875 77.421875 43.01171875 77.421875 C42.99713623 75.863479 42.98255371 74.30508301 42.9675293 72.69946289 C42.90933955 66.89015327 42.83210748 61.08122288 42.74926758 55.2722168 C42.71611543 52.76316506 42.68805361 50.25404048 42.6652832 47.74487305 C42.63155905 44.12777819 42.57923248 40.51134498 42.5234375 36.89453125 C42.51704758 35.78167252 42.51065765 34.66881378 42.5040741 33.52223206 C42.36446928 26.04327081 41.9266615 18.75323814 36.82421875 12.921875 C33.25284274 11.01714113 30.02664396 10.22341862 26.01171875 10.421875 C21.38969725 11.88551514 17.9102834 13.48810869 15.01171875 17.421875 C11.87315915 24.31671558 11.5446904 30.97978837 11.5 38.45703125 C11.4820488 39.57629501 11.4640976 40.69555878 11.44560242 41.84873962 C11.39178699 45.39391406 11.35769564 48.93895609 11.32421875 52.484375 C11.29102035 54.90040894 11.25652838 57.31642546 11.22070312 59.73242188 C11.13607684 65.62881027 11.06912853 71.52516135 11.01171875 77.421875 C6.06171875 77.421875 1.11171875 77.421875 -3.98828125 77.421875 C-4.00286377 75.79241943 -4.01744629 74.16296387 -4.0324707 72.48413086 C-4.09054487 66.42515374 -4.16777827 60.36654469 -4.25073242 54.30786133 C-4.28393868 51.68813053 -4.31198391 49.06832894 -4.3347168 46.44848633 C-4.36834079 42.67759089 -4.42066321 38.90734178 -4.4765625 35.13671875 C-4.48295242 33.96978989 -4.48934235 32.80286102 -4.4959259 31.60057068 C-4.6282374 24.24366754 -5.00287729 18.66317072 -10.17578125 13.046875 C-14.58883324 10.49711163 -18.43716391 9.94773641 -23.36328125 10.86328125 C-28.50541822 12.34333712 -30.90970814 13.89472267 -33.98828125 18.421875 C-34.59725828 21.29691865 -34.59725828 21.29691865 -34.53417969 24.40551758 C-34.56375763 26.17678764 -34.56375763 26.17678764 -34.59393311 27.98384094 C-34.59577606 29.88096077 -34.59577606 29.88096077 -34.59765625 31.81640625 C-34.6141925 33.11889816 -34.63072876 34.42139008 -34.64776611 35.76335144 C-34.69135475 39.21402883 -34.71141937 42.66445242 -34.72650146 46.11535645 C-34.74610362 49.64150955 -34.78806994 53.16738979 -34.828125 56.69335938 C-34.90333473 63.60278858 -34.95161306 70.51213483 -34.98828125 77.421875 C-39.93828125 77.421875 -44.88828125 77.421875 -49.98828125 77.421875 C-49.98828125 51.351875 -49.98828125 25.281875 -49.98828125 -1.578125 C-45.69828125 -1.578125 -41.40828125 -1.578125 -36.98828125 -1.578125 C-36.32828125 1.061875 -35.66828125 3.701875 -34.98828125 6.421875 C-33.99828125 5.49375 -33.00828125 4.565625 -31.98828125 3.609375 C-23.08447102 -3.893238 -10.52789243 -5.37097655 0 0 Z " fill="#363334" transform="translate(1406.98828125,632.578125)"/>
<path d="M0 0 C3.24918781 2.43991055 5.04865615 5.08818421 7.1015625 8.578125 C7.56304688 8.04703125 8.02453125 7.5159375 8.5 6.96875 C15.10438635 -0.18382652 21.35546546 -3.52305022 31.1640625 -3.921875 C38.98024321 -3.60121118 44.54462784 -1.41579308 49.9765625 4.265625 C57.91629243 14.20866642 57.26049741 27.16082902 57.19921875 39.2734375 C57.1978038 40.34689423 57.19638885 41.42035095 57.19493103 42.52633667 C57.18938175 45.9186291 57.17683897 49.31085288 57.1640625 52.703125 C57.15904094 55.01822821 57.15447918 57.33333246 57.15039062 59.6484375 C57.13942899 65.29169268 57.12219994 70.93489725 57.1015625 76.578125 C52.1515625 76.578125 47.2015625 76.578125 42.1015625 76.578125 C42.0718335 74.43799927 42.0718335 74.43799927 42.04150391 72.25463867 C41.96494855 66.9186962 41.87631113 61.58300882 41.78417969 56.24731445 C41.74609499 53.94593371 41.71120788 51.64449759 41.6796875 49.34301758 C41.63358843 46.01884275 41.57567125 42.69504251 41.515625 39.37109375 C41.50407379 38.3560527 41.49252258 37.34101166 41.48062134 36.29521179 C41.32468545 28.60278314 41.03219456 20.51983213 37.6015625 13.515625 C33.25318873 10.14563533 28.29347145 9.19089168 22.84765625 9.8515625 C17.74825136 11.34171118 15.55268434 14.09272726 13.01171875 18.640625 C11.36409814 22.1480062 10.95991089 24.95460016 10.89624023 28.78393555 C10.87629501 29.84480881 10.85634979 30.90568207 10.83580017 31.998703 C10.81908768 33.14252945 10.80237518 34.2863559 10.78515625 35.46484375 C10.76437515 36.63698929 10.74359406 37.80913483 10.72218323 39.01679993 C10.65672432 42.76634786 10.59781954 46.51596663 10.5390625 50.265625 C10.49587382 52.80534591 10.45225942 55.34505962 10.40820312 57.88476562 C10.3010466 64.11581255 10.19976862 70.34693084 10.1015625 76.578125 C5.1515625 76.578125 0.2015625 76.578125 -4.8984375 76.578125 C-4.91302002 74.98419922 -4.92760254 73.39027344 -4.94262695 71.74804688 C-5.00075764 65.81390356 -5.07799048 59.88013381 -5.16088867 53.94628906 C-5.19406844 51.38189778 -5.22212182 48.81743469 -5.24487305 46.25292969 C-5.278546 42.55893458 -5.33087057 38.8655934 -5.38671875 35.171875 C-5.39310867 34.0319812 -5.3994986 32.8920874 -5.40608215 31.71765137 C-5.54134336 24.33406196 -5.94025787 17.87438231 -11.0859375 12.140625 C-15.52219307 9.67603857 -19.36156446 9.10663379 -24.2734375 10.01953125 C-29.41557447 11.49958712 -31.81986439 13.05097267 -34.8984375 17.578125 C-35.50741453 20.45316865 -35.50741453 20.45316865 -35.44433594 23.56176758 C-35.47391388 25.33303764 -35.47391388 25.33303764 -35.50408936 27.14009094 C-35.50593231 29.03721077 -35.50593231 29.03721077 -35.5078125 30.97265625 C-35.52434875 32.27514816 -35.54088501 33.57764008 -35.55792236 34.91960144 C-35.601511 38.37027883 -35.62157562 41.82070242 -35.63665771 45.27160645 C-35.65625987 48.79775955 -35.69822619 52.32363979 -35.73828125 55.84960938 C-35.81349098 62.75903858 -35.86176931 69.66838483 -35.8984375 76.578125 C-40.8484375 76.578125 -45.7984375 76.578125 -50.8984375 76.578125 C-50.8984375 50.508125 -50.8984375 24.438125 -50.8984375 -2.421875 C-46.6084375 -2.421875 -42.3184375 -2.421875 -37.8984375 -2.421875 C-37.2384375 0.218125 -36.5784375 2.858125 -35.8984375 5.578125 C-34.9084375 4.65 -33.9184375 3.721875 -32.8984375 2.765625 C-23.46908134 -5.1798285 -10.79132263 -6.11625452 0 0 Z " fill="#363334" transform="translate(1280.8984375,633.421875)"/>
<path d="M0 0 C6.64934229 5.72039006 10.62290522 12.17493132 12.0625 20.8125 C12.0625 22.4625 12.0625 24.1125 12.0625 25.8125 C7.1125 25.8125 2.1625 25.8125 -2.9375 25.8125 C-3.185 24.45125 -3.4325 23.09 -3.6875 21.6875 C-4.84386259 16.64227417 -6.2750864 12.52170379 -10.8359375 9.59375 C-18.61452413 5.54541495 -26.17971618 4.4860138 -34.6875 7 C-39.64863927 8.84419313 -42.60128882 11.56523574 -45.3125 16.125 C-46.56296224 21.50198764 -45.79100395 25.36154328 -43.0625 30 C-37.2221873 36.10428164 -28.37376839 38.04649724 -20.5 40.25 C-8.39977121 43.66408376 2.13931805 48.11282651 9.4375 58.83203125 C13.32266602 66.10322737 13.46489779 74.85016935 11.25 82.6875 C7.58623369 91.03274548 1.10525035 95.85482261 -7.1875 99.25 C-20.9219526 103.31751096 -36.87687577 102.25025173 -49.4453125 95.45703125 C-55.76968204 91.56430875 -62.032239 86.26033846 -63.9375 78.8125 C-64.37480283 75.47870901 -64.66914233 72.16697091 -64.9375 68.8125 C-59.9875 68.8125 -55.0375 68.8125 -49.9375 68.8125 C-49.545625 70.359375 -49.15375 71.90625 -48.75 73.5 C-46.81467075 79.8232647 -43.83978629 82.98658696 -38.0625 86.125 C-30.02203358 89.41367157 -20.37053786 89.04650593 -12.25 86.1875 C-8.02416889 84.16247611 -5.75200718 82.26629035 -3.9375 77.8125 C-3.20176796 73.00676096 -3.43870298 69.10937224 -5.1875 64.5625 C-11.97913102 57.77086898 -21.00494547 55.3788172 -30 52.8125 C-42.14483162 49.34109948 -53.04876863 44.96038562 -59.8125 33.6875 C-63.12266737 25.22818338 -62.56271504 17.76121244 -59.25390625 9.42578125 C-54.75611769 0.4969369 -46.28416073 -3.28445127 -37.25 -6.5 C-24.54571549 -9.13818811 -10.68100274 -7.66749779 0 0 Z " fill="#363334" transform="translate(438.9375,610.1875)"/>
<path d="M0 0 C7.50825729 5.9514696 11.8228993 11.83445296 13.26953125 21.51953125 C13.51989981 24.15178449 13.67317511 26.79293033 13.80859375 29.43359375 C8.85859375 29.43359375 3.90859375 29.43359375 -1.19140625 29.43359375 C-1.875 26.43880208 -2.55859375 23.44401042 -3.2421875 20.44921875 C-4.17299932 17.49207172 -5.27549975 15.81640183 -7.19140625 13.43359375 C-7.19140625 12.77359375 -7.19140625 12.11359375 -7.19140625 11.43359375 C-15.31030959 7.14084026 -23.59242674 5.10426357 -32.62890625 7.37109375 C-39.17306316 9.78327445 -43.41066216 14.75840313 -46.41113281 20.95092773 C-49.37061857 29.1629864 -49.77970155 36.69578955 -49.65795898 45.31591797 C-49.62885019 47.56292113 -49.63742557 49.80757366 -49.65039062 52.0546875 C-49.63383067 64.0001003 -48.1184711 74.05131893 -40.19140625 83.43359375 C-34.49701021 88.41275164 -28.85961822 88.78411035 -21.55859375 88.7109375 C-15.27000632 88.192968 -11.07734573 86.03254244 -6.31640625 81.99609375 C-2.81299413 77.32891844 -2.2698995 70.99634839 -1.19140625 65.43359375 C3.42859375 65.43359375 8.04859375 65.43359375 12.80859375 65.43359375 C14.19321944 72.35672218 12.94680194 78.55122782 9.515625 84.78125 C3.29955657 93.4304176 -4.72959418 99.13622015 -15.19140625 101.43359375 C-28.35222093 102.58470856 -40.72880373 101.91436384 -51.34765625 93.25390625 C-60.28231228 84.43282636 -65.21146862 72.99408861 -65.38165283 60.50802612 C-65.38590271 59.75901031 -65.39015259 59.00999451 -65.39453125 58.23828125 C-65.40023132 57.45019073 -65.4059314 56.66210022 -65.4118042 55.85012817 C-65.42122612 54.18427866 -65.42777699 52.51841074 -65.43164062 50.85253906 C-65.4412951 48.33754755 -65.47232323 45.82339204 -65.50390625 43.30859375 C-65.60951865 27.21927363 -62.87307478 14.71138673 -51.62109375 2.703125 C-38.29516058 -9.74441065 -14.82210934 -10.3847211 0 0 Z " fill="#363334" transform="translate(1118.19140625,609.56640625)"/>
<path d="M0 0 C5.19144757 3.80964436 7.8323852 9.74809636 9.1328125 15.90234375 C9.23996609 17.60563038 9.29834584 19.31231265 9.32226562 21.01879883 C9.33898315 22.03698196 9.35570068 23.0551651 9.3729248 24.10420227 C9.38650024 25.19903427 9.40007568 26.29386627 9.4140625 27.421875 C9.43247192 28.55380783 9.45088135 29.68574066 9.46984863 30.85197449 C9.52858293 34.4728782 9.58138242 38.09382937 9.6328125 41.71484375 C9.70066888 46.47144928 9.77440044 51.22791239 9.8515625 55.984375 C9.86513794 57.07313431 9.87871338 58.16189362 9.8927002 59.28364563 C9.90941772 60.31128525 9.92613525 61.33892487 9.94335938 62.39770508 C9.95588745 63.29387039 9.96841553 64.19003571 9.98132324 65.11335754 C10.15951857 68.3940146 10.66817362 71.64987162 11.1328125 74.90234375 C5.8528125 74.90234375 0.5728125 74.90234375 -4.8671875 74.90234375 C-5.5271875 71.93234375 -6.1871875 68.96234375 -6.8671875 65.90234375 C-7.36347656 66.37285156 -7.85976563 66.84335937 -8.37109375 67.328125 C-9.39009766 68.26205078 -9.39009766 68.26205078 -10.4296875 69.21484375 C-11.09097656 69.82972656 -11.75226562 70.44460938 -12.43359375 71.078125 C-17.82817803 75.12189845 -23.09356622 76.442352 -29.7421875 76.33984375 C-30.7938208 76.32630859 -30.7938208 76.32630859 -31.86669922 76.3125 C-38.69722953 76.08486835 -43.57726173 74.87112709 -48.66796875 70.27734375 C-53.34696296 64.91715945 -54.59090634 58.89225719 -54.8671875 51.90234375 C-54.42033173 46.0485331 -52.75104734 41.38372048 -48.8671875 36.90234375 C-36.15153165 26.62631955 -21.32625796 27.75225569 -5.8671875 27.90234375 C-6.09695144 25.83749151 -6.35189527 23.77543257 -6.6171875 21.71484375 C-6.75640625 20.56628906 -6.895625 19.41773438 -7.0390625 18.234375 C-7.96766207 14.49807579 -9.20069798 12.64331621 -11.8671875 9.90234375 C-17.59033293 7.23154255 -22.66267518 7.16750631 -28.6171875 9.15234375 C-31.77820031 10.85442757 -33.17535726 11.80065498 -34.8671875 14.90234375 C-35.1971875 16.22234375 -35.5271875 17.54234375 -35.8671875 18.90234375 C-40.8171875 18.90234375 -45.7671875 18.90234375 -50.8671875 18.90234375 C-50.35058341 11.41158441 -48.2960045 7.04479411 -42.8046875 1.77734375 C-30.61446771 -8.0160675 -13.1503466 -7.73064309 0 0 Z M-36.8671875 44.46484375 C-39.52389209 49.03105476 -40.07196195 52.73902466 -38.8671875 57.90234375 C-35.93532619 61.40627556 -33.87097545 62.62351376 -29.4921875 63.83984375 C-21.79524983 63.97254957 -15.8477864 61.62595837 -9.8671875 56.90234375 C-5.98517334 52.92327923 -5.64242067 49.8957016 -5.6171875 44.52734375 C-5.6810821 42.65158073 -5.75804141 40.77601837 -5.8671875 38.90234375 C-9.03367405 38.81413448 -12.19983842 38.76155325 -15.3671875 38.71484375 C-16.6975 38.67713867 -16.6975 38.67713867 -18.0546875 38.63867188 C-25.43663205 38.55725337 -31.07671212 39.5188127 -36.8671875 44.46484375 Z " fill="#363334" transform="translate(596.8671875,635.09765625)"/>
<path d="M0 0 C5.30580032 4.4015964 8.95433621 8.71664656 9.78483582 15.74075317 C9.91743942 18.65175927 9.95945619 21.55083246 9.96875 24.46484375 C9.98432953 25.53628128 9.99990906 26.60771881 10.01596069 27.71162415 C10.06329153 31.12545007 10.09114263 34.53907623 10.1171875 37.953125 C10.15393552 41.34917436 10.19485981 44.74511729 10.23983765 48.1410675 C10.26659305 50.24809026 10.28813956 52.35518851 10.30337524 54.46232605 C10.37663632 61.44092924 10.84879167 68.31572394 11.4921875 75.265625 C6.5421875 75.265625 1.5921875 75.265625 -3.5078125 75.265625 C-4.1678125 72.295625 -4.8278125 69.325625 -5.5078125 66.265625 C-6.4978125 67.173125 -7.4878125 68.080625 -8.5078125 69.015625 C-17.17412748 76.24326319 -24.49034235 77.30632224 -35.61572266 76.48876953 C-41.42072189 75.80415414 -44.96110625 73.08908124 -48.8828125 68.953125 C-53.84731245 62.57212371 -54.39941982 55.09822605 -53.5078125 47.265625 C-51.73469635 41.08626214 -47.91943967 36.6366386 -42.5078125 33.265625 C-30.49037246 27.57506716 -18.48008269 28.13158317 -5.5078125 28.265625 C-5.59553705 26.36895974 -5.70372551 24.47323507 -5.8203125 22.578125 C-5.87832031 21.52238281 -5.93632813 20.46664062 -5.99609375 19.37890625 C-6.55609321 15.97188663 -7.45131988 14.02054907 -9.5078125 11.265625 C-14.72970921 8.29631119 -18.6633234 7.70900699 -24.5078125 8.265625 C-28.11265907 9.69396043 -31.12048506 11.16209932 -33.5078125 14.265625 C-34.4978125 16.740625 -34.4978125 16.740625 -35.5078125 19.265625 C-40.1278125 19.265625 -44.7478125 19.265625 -49.5078125 19.265625 C-49.5078125 11.91528178 -48.96758822 9.60433462 -44.5078125 4.265625 C-33.39685472 -6.67287889 -12.98602166 -8.98098694 0 0 Z M-35.9453125 45.890625 C-38.41285892 49.64129557 -38.94369362 51.73246137 -38.5078125 56.265625 C-37.05427854 59.55187568 -35.9032529 61.62930418 -32.5546875 63.15625 C-25.52840519 65.07250881 -19.55147276 63.96305091 -13.2578125 60.453125 C-12.3503125 59.73125 -11.4428125 59.009375 -10.5078125 58.265625 C-9.5590625 57.646875 -8.6103125 57.028125 -7.6328125 56.390625 C-4.10506429 51.20275999 -5.13720155 45.3518804 -5.5078125 39.265625 C-8.67415886 39.14801785 -11.83993324 39.07791476 -15.0078125 39.015625 C-15.8946875 38.98210938 -16.7815625 38.94859375 -17.6953125 38.9140625 C-25.19588925 38.8037599 -30.7482146 40.29375033 -35.9453125 45.890625 Z " fill="#363334" transform="translate(1814.5078125,634.734375)"/>
<path d="M0 0 C10.62033599 11.5306505 10.1875 22.43729016 10.1875 38.375 C-6.3125 38.375 -22.8125 38.375 -39.8125 38.375 C-36.84977525 51.43435574 -36.84977525 51.43435574 -28.8125 60.875 C-22.77618946 63.82082475 -15.22906907 63.36437183 -8.92578125 61.5390625 C-6.49831559 60.57388183 -4.16449056 59.509587 -1.8125 58.375 C-0.15005291 57.6978797 1.51560761 57.0284509 3.1875 56.375 C4.08172914 57.6113168 4.95237891 58.86471562 5.8125 60.125 C6.54339844 61.16914062 6.54339844 61.16914062 7.2890625 62.234375 C8.1875 64.375 8.1875 64.375 7.56640625 66.4765625 C6.04267437 68.57439166 4.70906707 69.6545957 2.5 71 C1.85675781 71.40476562 1.21351563 71.80953125 0.55078125 72.2265625 C-9.06350623 76.89862947 -21.7419397 76.85645073 -32.09375 74.6875 C-41.69799499 71.13037223 -47.43472116 64.4489416 -51.8125 55.375 C-56.46053389 44.54123679 -57.00865296 28.67920603 -52.84765625 17.5703125 C-48.32105837 7.9705087 -42.99872225 0.55359965 -33.1875 -4.0625 C-21.76007776 -8.11739176 -10.26340778 -5.92996894 0 0 Z M-33.29296875 11.8828125 C-37.13793198 16.73129986 -37.3653295 19.86273276 -38.8125 26.375 C-27.5925 26.375 -16.3725 26.375 -4.8125 26.375 C-4.8125 19.57124191 -5.20622342 16.74356708 -8.8125 11.375 C-12.88505575 7.40425815 -15.62390635 6.5814711 -21.125 6.0625 C-26.27191278 6.49867905 -29.73569625 8.25983839 -33.29296875 11.8828125 Z " fill="#363334" transform="translate(519.8125,635.625)"/>
<path d="M0 0 C10.62033599 11.5306505 10.1875 22.43729016 10.1875 38.375 C-6.3125 38.375 -22.8125 38.375 -39.8125 38.375 C-36.84977525 51.43435574 -36.84977525 51.43435574 -28.8125 60.875 C-22.77618946 63.82082475 -15.22906907 63.36437183 -8.92578125 61.5390625 C-6.49831559 60.57388183 -4.16449056 59.509587 -1.8125 58.375 C-0.15005291 57.6978797 1.51560761 57.0284509 3.1875 56.375 C4.08172914 57.6113168 4.95237891 58.86471562 5.8125 60.125 C6.54339844 61.16914062 6.54339844 61.16914062 7.2890625 62.234375 C8.1875 64.375 8.1875 64.375 7.56640625 66.4765625 C6.04267437 68.57439166 4.70906707 69.6545957 2.5 71 C1.85675781 71.40476562 1.21351563 71.80953125 0.55078125 72.2265625 C-9.06350623 76.89862947 -21.7419397 76.85645073 -32.09375 74.6875 C-41.6943763 71.13171248 -47.44083678 64.44951304 -51.8125 55.375 C-56.52218265 44.23819403 -56.62473374 29.28233209 -52.84765625 17.828125 C-48.71532823 8.03528729 -42.94474214 0.52820245 -33.1875 -4.0625 C-21.76007776 -8.11739176 -10.26340778 -5.92996894 0 0 Z M-35.1875 14.125 C-37.36831081 18.15818796 -37.36831081 18.15818796 -38.8125 26.375 C-27.5925 26.375 -16.3725 26.375 -4.8125 26.375 C-4.8125 18.34125563 -5.16656631 16.15246482 -9.8125 10.375 C-13.37511308 7.02830286 -16.30948878 6.54842437 -21.0625 6 C-27.22855138 6.61660514 -31.187612 9.49355073 -35.1875 14.125 Z " fill="#363334" transform="translate(840.8125,635.625)"/>
<path d="M0 0 C7.96787675 6.70089988 12.39205132 16.3346587 13.55175781 26.61157227 C13.6859501 29.35282248 13.71784759 32.06821034 13.6875 34.8125 C13.67992676 35.77559082 13.67235352 36.73868164 13.66455078 37.73095703 C13.36733105 50.58950692 9.61324415 59.71566128 0.4375 68.6875 C-9.40882775 75.637849 -18.92506903 76.18755632 -30.75 74.9375 C-34.27232443 74.14905917 -36.82252718 73.02766597 -39.75 70.9375 C-40.4409375 70.45152344 -41.131875 69.96554687 -41.84375 69.46484375 C-50.23214687 62.84489622 -54.78226401 53.9457816 -56.234375 43.4296875 C-57.31518619 28.71158212 -55.87110954 15.62907419 -46.515625 3.79296875 C-34.50512131 -8.82868889 -14.05278908 -9.9141141 0 0 Z M-35 12.125 C-41.92709246 20.99167835 -42.45805473 31.75742999 -41.125 42.625 C-39.84101059 49.81189375 -37.43937907 55.3761866 -32.125 60.4375 C-26.99168951 63.67959084 -21.63906565 63.6142189 -15.75 62.9375 C-10.20452211 61.11075434 -7.46038672 57.98217752 -4.8125 52.875 C-0.51721766 43.42537886 -0.24633431 31.76120027 -2.46875 21.67578125 C-4.88818999 15.30523966 -8.06955805 10.42663441 -14.125 7.0625 C-22.19654329 4.55753829 -29.15360301 5.80222992 -35 12.125 Z " fill="#363334" transform="translate(1983.75,636.0625)"/>
<path d="M0 0 C7.42725479 5.69584681 11.86770946 14.78544495 13.98046875 23.75 C14.38169161 27.57364013 14.40111181 31.34587554 14.35546875 35.1875 C14.36707031 36.16009766 14.37867188 37.13269531 14.390625 38.13476562 C14.34385552 49.80374995 11.12543378 59.19791514 3.09375 67.76171875 C-3.75385675 74.17882763 -10.59850692 76.3139833 -19.89453125 76.1875 C-20.6839209 76.17920166 -21.47331055 76.17090332 -22.28662109 76.16235352 C-31.6621415 75.89136799 -38.4293234 73.15559556 -45.26953125 66.66015625 C-53.46866551 57.7106548 -55.58114573 47.16641797 -55.45703125 35.3125 C-55.44945801 34.29913574 -55.44188477 33.28577148 -55.43408203 32.24169922 C-55.27649999 25.11139924 -54.59513995 19.04618053 -51.01953125 12.75 C-50.58382813 11.94691406 -50.148125 11.14382813 -49.69921875 10.31640625 C-45.24622776 2.90692123 -39.07632366 -2.36002274 -30.6953125 -4.77734375 C-19.86032921 -6.69126051 -9.44428361 -5.8455914 0 0 Z M-35.66015625 14.4453125 C-39.61955408 21.15808469 -40.54851047 28.00840925 -40.45703125 35.6875 C-40.4509082 36.56414307 -40.44478516 37.44078613 -40.43847656 38.34399414 C-40.23034843 46.95009257 -38.39385589 54.56315549 -32.01953125 60.75 C-26.7458079 64.48019457 -21.24500828 64.52137835 -15.01953125 63.75 C-9.7915352 62.34857901 -7.44565892 59.23975073 -4.64453125 54.75 C-1.04953474 48.44433767 -0.81130719 43.19051929 -0.76953125 36.0625 C-0.74890625 35.20205078 -0.72828125 34.34160156 -0.70703125 33.45507812 C-0.65117218 24.18945529 -2.76275399 17.1308364 -9.1953125 10.34765625 C-12.72309581 7.25801305 -15.91061155 6.85081088 -20.45703125 6.4375 C-27.19764895 7.02878225 -31.29077712 9.51135067 -35.66015625 14.4453125 Z " fill="#363334" transform="translate(1199.01953125,635.25)"/>
<path d="M0 0 C5.87616553 6.20261917 8.38122696 12.91096741 8.36352539 21.33691406 C8.36344986 22.53785706 8.36337433 23.73880005 8.36329651 24.97613525 C8.35813522 26.26791687 8.35297394 27.55969849 8.34765625 28.890625 C8.34579017 30.23012235 8.34436716 31.56962038 8.34336853 32.90911865 C8.33955835 36.42722472 8.32974091 39.94528921 8.31866455 43.46337891 C8.30841817 47.05630939 8.303864 50.64924661 8.29882812 54.2421875 C8.28811725 61.28647692 8.27053262 68.33073137 8.25 75.375 C3.3 75.375 -1.65 75.375 -6.75 75.375 C-6.76458252 73.67972168 -6.77916504 71.98444336 -6.79418945 70.23779297 C-6.8459418 64.62176871 -6.91125465 59.00601044 -6.98571491 53.39024162 C-7.03034577 49.98707343 -7.0696173 46.58402293 -7.09643555 43.18066406 C-7.12754229 39.26341433 -7.18232892 35.34666424 -7.23828125 31.4296875 C-7.24467117 30.21384979 -7.2510611 28.99801208 -7.25764465 27.74533081 C-7.33782454 19.62490859 -7.33782454 19.62490859 -10.75 12.375 C-14.57474147 9.2059285 -18.84328837 8.23455745 -23.75 8.375 C-29.81104682 9.50828421 -33.71895983 11.5881398 -37.75 16.375 C-38.08 16.705 -38.41 17.035 -38.75 17.375 C-38.87330088 19.1846774 -38.92790183 20.99907837 -38.95532227 22.81274414 C-38.97526749 23.97387222 -38.99521271 25.13500031 -39.01576233 26.33131409 C-39.04083107 28.22659096 -39.04083107 28.22659096 -39.06640625 30.16015625 C-39.08718735 31.44611191 -39.10796844 32.73206757 -39.12937927 34.05699158 C-39.18466176 37.48135904 -39.23404361 40.9057875 -39.28222656 44.33026123 C-39.33239665 47.82244314 -39.3881061 51.3145361 -39.44335938 54.80664062 C-39.55101642 61.66268502 -39.65193283 68.5188118 -39.75 75.375 C-44.7 75.375 -49.65 75.375 -54.75 75.375 C-54.75 49.305 -54.75 23.235 -54.75 -3.625 C-50.46 -3.625 -46.17 -3.625 -41.75 -3.625 C-39.70301586 -1.57801586 -40.04954307 2.67911241 -39.75 5.375 C-39.2653125 4.90449219 -38.780625 4.43398438 -38.28125 3.94921875 C-27.17742708 -6.36452446 -13.28008673 -7.84732398 0 0 Z " fill="#363334" transform="translate(1621.75,634.625)"/>
<path d="M0 0 C6.84571242 4.24698855 9.70420512 9.62227143 11.64248657 17.24746704 C12.67090703 22.79831924 12.58885561 28.29364415 12.515625 33.921875 C12.51138016 35.17148514 12.50713531 36.42109528 12.50276184 37.70857239 C12.48892353 40.99167047 12.46208787 44.27430555 12.4286499 47.55725098 C12.39767037 50.92287605 12.38419767 54.28856958 12.36914062 57.65429688 C12.33623805 64.22936719 12.2845425 70.80404745 12.22265625 77.37890625 C7.27265625 77.37890625 2.32265625 77.37890625 -2.77734375 77.37890625 C-2.79192627 75.7546875 -2.80650879 74.13046875 -2.8215332 72.45703125 C-2.8796565 66.41107552 -2.95688947 60.36548673 -3.03979492 54.31982422 C-3.07297814 51.70692923 -3.10103046 49.0939637 -3.1237793 46.48095703 C-3.15744583 42.71746864 -3.20977024 38.95462286 -3.265625 35.19140625 C-3.27201492 34.02963867 -3.27840485 32.86787109 -3.2849884 31.67089844 C-3.40093628 25.22430259 -3.96280759 20.21658991 -6.77734375 14.37890625 C-10.67107861 10.82873623 -15.64366558 10.23320921 -20.77734375 10.37890625 C-25.92761621 11.49372372 -29.92614972 13.76111792 -33.77734375 17.37890625 C-35.08823265 20.00068404 -34.93818082 21.99415259 -34.98266602 24.93017578 C-35.00261124 26.09122833 -35.02255646 27.25228088 -35.04310608 28.44851685 C-35.06817482 30.33605179 -35.06817482 30.33605179 -35.09375 32.26171875 C-35.1145311 33.54625946 -35.13531219 34.83080017 -35.15672302 36.15426636 C-35.21193424 39.57039984 -35.26134763 42.9865937 -35.30957031 46.40283203 C-35.35979232 49.88840106 -35.41547472 53.37388234 -35.47070312 56.859375 C-35.57827305 63.6991443 -35.67921605 70.53899503 -35.77734375 77.37890625 C-40.72734375 77.37890625 -45.67734375 77.37890625 -50.77734375 77.37890625 C-50.77734375 51.30890625 -50.77734375 25.23890625 -50.77734375 -1.62109375 C-46.48734375 -1.62109375 -42.19734375 -1.62109375 -37.77734375 -1.62109375 C-37.11734375 1.34890625 -36.45734375 4.31890625 -35.77734375 7.37890625 C-35.09671875 6.63640625 -34.41609375 5.89390625 -33.71484375 5.12890625 C-24.72862415 -3.88291511 -11.39574432 -5.31801402 0 0 Z " fill="#353233" transform="translate(2064.77734375,632.62109375)"/>
<path d="M0 0 C4.95 0 9.9 0 15 0 C15.01458252 1.61374512 15.02916504 3.22749023 15.04418945 4.89013672 C15.10241191 10.91004967 15.17964357 16.92959794 15.26245117 22.94921875 C15.29558804 25.54844214 15.32365449 28.14773553 15.34643555 30.74707031 C15.38018798 34.49574458 15.43251586 38.24378371 15.48828125 41.9921875 C15.49467117 43.14363251 15.5010611 44.29507751 15.50764465 45.48141479 C15.62910086 52.23334152 16.06585361 58.80480681 19 65 C23.8958827 68.03078453 30.63337825 67.71797131 36.1796875 66.53515625 C41.06690084 64.97678067 44.56942249 62.67184245 47 58 C47.74668236 53.66406009 47.69747447 49.37167119 47.671875 44.98046875 C47.69099945 43.09899895 47.69099945 43.09899895 47.71051025 41.17951965 C47.74064171 37.86034283 47.75009611 34.54248485 47.74859619 31.2232666 C47.75183297 26.52937263 47.79450201 21.83563931 47.83233643 17.141922 C47.85016919 14.64464082 47.86038992 12.14729209 47.86248779 9.64994812 C47.86629456 8.52820694 47.87010132 7.40646576 47.87402344 6.25073242 C47.87448669 5.25845139 47.87494995 4.26617035 47.87542725 3.24382019 C48 1 48 1 49 0 C53.62 0 58.24 0 63 0 C63 26.07 63 52.14 63 79 C58.71 79 54.42 79 50 79 C49.34 76.36 48.68 73.72 48 71 C47.48050781 71.48210937 46.96101563 71.96421875 46.42578125 72.4609375 C45.37970703 73.40839844 45.37970703 73.40839844 44.3125 74.375 C43.62800781 75.00148438 42.94351562 75.62796875 42.23828125 76.2734375 C35.46744518 81.49631628 27.10931304 80.63179066 19 80 C12.27433483 78.45291173 7.65709599 74.80902063 4 69 C1.07710462 62.97081189 -0.12862876 56.98253918 -0.11352539 50.29174805 C-0.11344986 49.17096359 -0.11337433 48.05017914 -0.11329651 46.89543152 C-0.10813522 45.6963063 -0.10297394 44.49718109 -0.09765625 43.26171875 C-0.0962413 42.02581497 -0.09482635 40.78991119 -0.09336853 39.51655579 C-0.08872618 36.24341655 -0.07975311 32.97032713 -0.06866455 29.69720459 C-0.05840404 26.35217752 -0.05394631 23.00714827 -0.04882812 19.66210938 C-0.03780907 13.10805099 -0.02054953 6.55403516 0 0 Z " fill="#353233" transform="translate(1484,631)"/>
<path d="M0 0 C4.51546926 3.3922182 7.55068155 7.79999335 8.59765625 13.31640625 C8.84709643 15.49302809 8.99824441 17.68045605 9.1328125 19.8671875 C4.1828125 19.8671875 -0.7671875 19.8671875 -5.8671875 19.8671875 C-6.2590625 18.7946875 -6.6509375 17.7221875 -7.0546875 16.6171875 C-8.61581079 12.96223534 -10.49619911 11.05832995 -13.8671875 8.8671875 C-19.84846443 6.87342852 -26.09298677 7.44202319 -31.8671875 9.8671875 C-34.10243444 13.36583488 -34.38839252 16.78441487 -33.8671875 20.8671875 C-29.77003747 26.84219796 -21.70157704 27.91367573 -15.1171875 29.6796875 C-5.07758823 32.50804772 4.00364839 35.6411503 9.3828125 45.0546875 C11.3717229 52.51310151 10.56261356 58.85202185 6.81640625 65.6015625 C2.37788626 71.57451283 -3.76972008 74.24281867 -10.8671875 75.8671875 C-13.95588862 76.18086737 -17.01385197 76.24840786 -20.1171875 76.2421875 C-21.37136475 76.23977051 -21.37136475 76.23977051 -22.65087891 76.23730469 C-30.64344467 76.07940391 -36.90413558 74.27947997 -43.7421875 70.1171875 C-49.66399369 63.84703977 -51.8671875 58.56407674 -51.8671875 49.8671875 C-47.2471875 49.8671875 -42.6271875 49.8671875 -37.8671875 49.8671875 C-37.1865625 51.4553125 -36.5059375 53.0434375 -35.8046875 54.6796875 C-34.0122284 58.199878 -33.10994933 59.69874052 -29.8046875 61.9921875 C-24.10875333 63.72464888 -17.19329846 64.07410681 -11.57421875 62.03515625 C-9.03171559 60.63546894 -7.18598916 59.50479082 -5.8671875 56.8671875 C-5.4827489 53.40724012 -5.61363277 51.37429696 -7.1796875 48.2421875 C-12.88329574 43.20178952 -20.72176965 41.90224643 -27.9296875 39.9921875 C-35.29550784 37.92231921 -42.88293122 35.20048032 -47.4296875 28.6796875 C-50.37158566 22.9237998 -51.04650169 16.90953553 -49.21875 10.64453125 C-46.0373931 3.58844479 -40.90203663 -0.51826294 -33.8671875 -3.5078125 C-22.48184338 -7.22994423 -10.26640545 -6.22857234 0 0 Z " fill="#363334" transform="translate(991.8671875,635.1328125)"/>
<path d="M0 0 C4.51546926 3.3922182 7.55068155 7.79999335 8.59765625 13.31640625 C8.84709643 15.49302809 8.99824441 17.68045605 9.1328125 19.8671875 C4.1828125 19.8671875 -0.7671875 19.8671875 -5.8671875 19.8671875 C-6.2590625 18.7946875 -6.6509375 17.7221875 -7.0546875 16.6171875 C-8.61581079 12.96223534 -10.49619911 11.05832995 -13.8671875 8.8671875 C-18.93473833 7.17800389 -23.77721197 7.20598353 -28.7421875 9.1171875 C-31.83265359 10.58787141 -31.83265359 10.58787141 -33.3046875 12.6796875 C-34.07230211 15.66485544 -34.30663741 17.79103815 -33.8671875 20.8671875 C-29.75510751 26.2991944 -25.10943038 27.27584305 -18.8046875 28.8046875 C1.88053101 34.30164552 1.88053101 34.30164552 7.3203125 41.5546875 C10.5623669 47.4798214 11.36278878 53.48001096 9.51953125 60.0546875 C6.86219597 66.04832478 2.23674886 71.07621979 -3.81347656 73.71655273 C-9.33828965 75.74766309 -14.38106291 76.37907639 -20.2421875 76.3046875 C-21.48282959 76.29550293 -21.48282959 76.29550293 -22.74853516 76.28613281 C-30.68195036 76.08418569 -36.95647533 74.247621 -43.7421875 70.1171875 C-49.66399369 63.84703977 -51.8671875 58.56407674 -51.8671875 49.8671875 C-47.2471875 49.8671875 -42.6271875 49.8671875 -37.8671875 49.8671875 C-37.1865625 51.4553125 -36.5059375 53.0434375 -35.8046875 54.6796875 C-34.0122284 58.199878 -33.10994933 59.69874052 -29.8046875 61.9921875 C-23.50797656 63.90737967 -15.71542372 64.16727132 -9.6796875 61.3671875 C-6.88435496 58.88244747 -6.35555455 58.36751124 -5.6796875 54.9296875 C-5.59998524 52.06571953 -5.9003213 50.79429314 -7.1171875 48.1171875 C-13.01249506 43.29375405 -20.69429236 41.90952776 -27.9296875 39.9921875 C-35.29550784 37.92231921 -42.88293122 35.20048032 -47.4296875 28.6796875 C-50.37158566 22.9237998 -51.04650169 16.90953553 -49.21875 10.64453125 C-46.0373931 3.58844479 -40.90203663 -0.51826294 -33.8671875 -3.5078125 C-22.48184338 -7.22994423 -10.26640545 -6.22857234 0 0 Z " fill="#363334" transform="translate(2145.8671875,635.1328125)"/>
<path d="M0 0 C4.91227133 3.21945901 8.24079871 6.87063832 9.65625 12.7265625 C10.16051585 15.43916498 10.57314442 18.16843996 10.97265625 20.8984375 C6.02265625 20.8984375 1.07265625 20.8984375 -4.02734375 20.8984375 C-4.60484375 19.6403125 -5.18234375 18.3821875 -5.77734375 17.0859375 C-7.41546352 13.80969797 -8.73380463 11.70457186 -12.02734375 9.8984375 C-17.09489458 8.20925389 -21.93736822 8.23723353 -26.90234375 10.1484375 C-29.99280984 11.61912141 -29.99280984 11.61912141 -31.46484375 13.7109375 C-32.23245836 16.69610544 -32.46679366 18.82228815 -32.02734375 21.8984375 C-27.79002523 27.73856781 -22.0909364 28.64507883 -15.33984375 30.3359375 C4.0256111 35.20434794 4.0256111 35.20434794 9.53515625 43.0234375 C12.56204097 49.07720693 12.94794731 55.37697536 11.03515625 61.8984375 C8.62066957 67.64559593 3.66299161 72.24221756 -1.98950195 74.77905273 C-7.67290668 76.88339283 -12.93628541 77.40832653 -18.96484375 77.3359375 C-19.84221191 77.32908936 -20.71958008 77.32224121 -21.62353516 77.31518555 C-31.11472819 77.0796261 -38.25589324 74.66988801 -45.02734375 67.8984375 C-49.46046254 61.90773643 -50.14560992 58.11267402 -50.02734375 50.8984375 C-45.40734375 50.8984375 -40.78734375 50.8984375 -36.02734375 50.8984375 C-35.53234375 52.3009375 -35.03734375 53.7034375 -34.52734375 55.1484375 C-32.57862302 59.44509606 -30.81691374 61.52624413 -26.44140625 63.3125 C-20.32050808 64.7981549 -14.34577595 64.69789688 -8.40234375 62.6484375 C-5.83939041 60.75994556 -4.79711739 59.97753207 -4.02734375 56.8984375 C-4.0962651 53.03884203 -4.22019481 50.7700227 -6.88671875 47.890625 C-12.18517078 44.52966662 -18.19857877 43.33196136 -24.21679688 41.71875 C-32.50993597 39.36948043 -40.78406269 36.29047927 -46.15234375 29.2109375 C-49.13793693 23.65412173 -49.11227791 17.60635953 -47.36328125 11.62890625 C-44.25605574 4.56334562 -38.96484796 0.46755692 -31.96484375 -2.4765625 C-21.50745037 -5.90969027 -9.7245379 -5.28385296 0 0 Z " fill="#363334" transform="translate(914.02734375,634.1015625)"/>
<path d="M0 0 C5.15421115 4.2144931 9.82570815 9.55879022 10.68359375 16.421875 C10.68359375 18.731875 10.68359375 21.041875 10.68359375 23.421875 C6.06359375 23.421875 1.44359375 23.421875 -3.31640625 23.421875 C-3.90421875 21.3490625 -3.90421875 21.3490625 -4.50390625 19.234375 C-6.26990256 13.96125926 -8.73717788 10.88576137 -13.62890625 8.109375 C-20.25921285 6.41325006 -25.34870173 7.0937321 -31.31640625 10.421875 C-38.04987416 17.15534291 -39.42750107 25.83633956 -39.62890625 34.984375 C-39.56131757 42.95983905 -38.56430176 52.52336799 -32.81640625 58.609375 C-27.06609003 62.77835426 -22.33218073 63.11328466 -15.31640625 62.421875 C-11.89665706 61.13192707 -11.89665706 61.13192707 -9.31640625 59.421875 C-8.32640625 59.091875 -7.33640625 58.761875 -6.31640625 58.421875 C-5.28940181 56.09296404 -5.28940181 56.09296404 -4.62890625 53.359375 C-4.19578125 51.73 -3.76265625 50.100625 -3.31640625 48.421875 C1.30359375 48.421875 5.92359375 48.421875 10.68359375 48.421875 C10.20260583 57.32015154 8.56305104 61.85928377 1.99609375 68.046875 C-7.16830508 75.57537022 -15.67884393 76.44148787 -27.25634766 75.64501953 C-35.32832394 74.77066704 -42.1531631 70.60447088 -47.31640625 64.421875 C-55.78021418 50.91739924 -57.52884547 35.55229713 -54.25390625 20.046875 C-51.72759511 11.45269504 -47.02506549 3.5744966 -39.4609375 -1.4296875 C-27.23834446 -7.97511984 -11.57467927 -7.88561623 0 0 Z " fill="#363334" transform="translate(1738.31640625,635.578125)"/>
<path d="M0 0 C4.95 0 9.9 0 15 0 C15 5.94 15 11.88 15 18 C19.95 18 24.9 18 30 18 C30 21.96 30 25.92 30 30 C25.05 30 20.1 30 15 30 C15.06887538 36.88715756 15.15684333 43.77370795 15.26245117 50.66040039 C15.29568906 53.00277978 15.3237245 55.34523904 15.34643555 57.68774414 C15.38000168 61.05649833 15.43232019 64.42452131 15.48828125 67.79296875 C15.49467117 68.83897751 15.5010611 69.88498627 15.50764465 70.96269226 C15.57911451 77.99618721 15.57911451 77.99618721 19 84 C22.17791169 85.4245811 25.56195072 85.07813748 29 85 C30.17571451 88.67410785 30.07366746 92.16929183 30 96 C24.61883136 99.34649791 18.08636812 98.57325095 12 98 C6.55979275 95.46748973 3.02547273 91.72386915 0.90283203 86.08569336 C-0.52425773 80.78985917 -0.24633354 75.3848039 -0.1953125 69.94140625 C-0.1924826 68.79711655 -0.18965271 67.65282684 -0.18673706 66.47386169 C-0.17558578 62.83663257 -0.15049014 59.19965409 -0.125 55.5625 C-0.11496369 53.08919628 -0.10583898 50.61588868 -0.09765625 48.14257812 C-0.07566292 42.09495623 -0.0411676 36.04752054 0 30 C-3.96 30 -7.92 30 -12 30 C-12 26.04 -12 22.08 -12 18 C-8.04 18 -4.08 18 0 18 C0 12.06 0 6.12 0 0 Z " fill="#363334" transform="translate(1848,613)"/>
<path d="M0 0 C4.95 0 9.9 0 15 0 C15 37.29 15 74.58 15 113 C10.05 113 5.1 113 0 113 C0 75.71 0 38.42 0 0 Z " fill="#363334" transform="translate(754,597)"/>
<path d="M0 0 C4.95 0 9.9 0 15 0 C15 26.07 15 52.14 15 79 C10.05 79 5.1 79 0 79 C0 52.93 0 26.86 0 0 Z " fill="#363334" transform="translate(1895,631)"/>
<path d="M0 0 C4.95 0 9.9 0 15 0 C15 26.07 15 52.14 15 79 C10.05 79 5.1 79 0 79 C0 52.93 0 26.86 0 0 Z " fill="#363334" transform="translate(1651,631)"/>
<path d="M0 0 C2.97 0 5.94 0 9 0 C10.85809101 4.49963651 12.70930915 9.00201493 14.55419922 13.50708008 C15.18284749 15.03943052 15.81337096 16.57101304 16.44580078 18.10180664 C17.35422284 20.30155706 18.25587781 22.50397586 19.15625 24.70703125 C19.44060913 25.39150833 19.72496826 26.07598541 20.01794434 26.78120422 C21.19839905 29.68591119 22 31.83205463 22 35 C22.66 35 23.32 35 24 35 C24.15637939 34.43039551 24.31275879 33.86079102 24.47387695 33.27392578 C26.57232822 25.93847005 29.30988402 18.93562694 32.1875 11.875 C32.65091797 10.72773438 33.11433594 9.58046875 33.59179688 8.3984375 C34.72391166 5.59732875 35.86004534 2.79792518 37 0 C39.97 0 42.94 0 46 0 C46 15.51 46 31.02 46 47 C43.69 47 41.38 47 39 47 C39 36.77 39 26.54 39 16 C34.71 26.23 30.42 36.46 26 47 C24.02 47 22.04 47 20 47 C18.308003 42.9254338 16.61736433 38.85030751 14.92797852 34.7746582 C14.35315594 33.38843587 13.77796341 32.00236689 13.20239258 30.61645508 C12.37483818 28.62361268 11.54861867 26.6302214 10.72265625 24.63671875 C10.22515869 23.43748779 9.72766113 22.23825684 9.21508789 21.00268555 C8.41504451 19.02564445 7.67444502 17.02333507 7 15 C7 25.56 7 36.12 7 47 C4.69 47 2.38 47 0 47 C0 31.49 0 15.98 0 0 Z " fill="#1A2C37" transform="translate(2196,135)"/>
<path d="M0 0 C12.21 0 24.42 0 37 0 C37 1.98 37 3.96 37 6 C32.05 6 27.1 6 22 6 C22 19.53 22 33.06 22 47 C19.69 47 17.38 47 15 47 C15 33.47 15 19.94 15 6 C10.05 6 5.1 6 0 6 C0 4.02 0 2.04 0 0 Z " fill="#1A2C38" transform="translate(2153,135)"/>
<path d="M0 0 C4.95 0 9.9 0 15 0 C15 5.28 15 10.56 15 16 C10.05 16 5.1 16 0 16 C0 10.72 0 5.44 0 0 Z " fill="#363334" transform="translate(1895,597)"/>
<path d="M0 0 C4.95 0 9.9 0 15 0 C15 5.28 15 10.56 15 16 C10.05 16 5.1 16 0 16 C0 10.72 0 5.44 0 0 Z " fill="#363334" transform="translate(1651,597)"/>
</svg>
